<?xml version="1.0"?>
<!-- Created with xTool Creative Space (https://www.xtool.com/pages/software) -->
<svg xmlns="http://www.w3.org/2000/svg" xmlns:xlink="http://www.w3.org/1999/xlink" xmlns:xcs="https://www.xtool.com/pages/software" version="1.1" preserveAspectRatio="xMinYMin meet" width="726.4487609863281mm" height="452.68994140624994mm" viewBox="-72.40359497070307 343.69567871093744 726.4487609863281 452.68994140624994" xcs:version="1.1.10"><style></style>
<path transform="matrix(1,0,0,1,5.68434e-14,0)" stroke="none" fill="#000000" data-view-type="laser" d="M627.2114482246461,344.3369320531732C626.701302224646,344.8470790531733 618.845044224646,347.0917240531733 594.3580082246465,353.4175420531733C589.3585712246461,354.7439230531731 579.8698442246464,357.29465605317307 573.4419972246465,359.02915405317316C567.0141502246463,360.76365305317313 557.3213652246463,363.4164150531731 552.0158402246464,364.74279605317304C531.8140352246467,370.0483210531731 523.6516892246464,372.190936053173 514.2649922246467,374.84369905317305C504.0620602246467,377.7005200531729 485.1866362246471,382.597927053173 474.98370422464717,385.1486600531731C467.22947622464727,387.08721705317294 455.4961042246471,390.45418405317304 451.82304922464715,391.882595053173C447.6398462246471,393.413035053173 445.1911432246472,398.31044205317284 444.4769382246472,406.472788053173C442.74243922464706,425.9603880531728 442.9464982246472,424.8380650531727 439.47750122464714,426.16444605317287C437.6409732246471,426.7766220531727 431.62124322464734,428.40909105317286 426.0096312246473,429.83750205317284C420.39801822464705,431.2659120531729 412.33770222464744,433.3064990531726 408.15450022464717,434.4288210531729C403.97129822464734,435.5511440531727 400.50230122464774,436.36737805317284 400.2982422246475,436.1633190531727C400.0941842246477,436.0612900531727 399.5840372246474,429.9395310531727 398.9718612246475,422.6954490531729C398.35968522464754,415.4513680531729 397.33939222464716,407.28902205317286 396.7272162246474,404.53423005317285C395.29880622464776,398.1063830531729 389.4831342246475,391.5765070531729 383.05528722464766,389.127803053173C378.0558512246478,387.2912760531729 377.03555822464745,387.2912760531729 350.2018472246478,389.43389105317317C344.8963222246478,389.842009053173 341.32529622464773,389.73997905317293 340.9171782246478,389.127803053173C340.5090612246477,388.515627053173 339.0806512246475,385.35271805317296 337.75427022464777,381.985751053173C334.59136122464787,374.027464053173 332.0394963414747,369.84426205317294 327.04005934147455,366.98744105317303C319.18380134147463,362.2940930531731 314.797673224648,363.2123560531731 297.962835224648,369.1300570531731C293.1674572246481,370.8645550531729 286.53555122464815,373.109200053173 283.2706132246481,374.333552053173C279.90364622464807,375.4558740531731 276.944795224648,375.96602105317305 276.6387072246483,375.4558740531731C273.1697102246482,369.9462910531731 267.25201022464813,362.90626805317316 264.3951892246483,360.9677110531732C261.3343092246483,358.8250950531731 260.0079282246483,357.29910674618054 252.55978822464823,357.29910674618054C252.55978822464823,357.29910674618054 245.85250478529582,357.29910674618054 243.37714922464835,358.5190070531731Q240.90179366400065,359.73890736016546 227.8686932246482,369.02802705317316L212.2582072246483,379.5370470531732L212.2582072246483,379.5370470531732L212.2582072246483,379.5370470531732L212.2582072246483,379.5370470531732L212.2582072246483,379.5370470531732L212.2582072246483,379.5370470531732L212.2582072246483,379.5370470531732L212.2582072246483,379.5370470531732L212.2582072246483,379.5370470531732L206.03441822464862,374.5376110531731C197.36192622464858,367.49758805317316 191.54625522464863,365.967148053173 182.1595582246486,368.31382205317306C176.85403322464862,369.6402030531731 173.38503622464856,372.70108305317314 160.32528322464867,387.8014220531731C155.12178822464892,393.923181053173 150.42843922464868,398.820589053173 149.91829322464872,398.820589053173C149.40814622464887,398.820589053173 145.9391492246487,397.3921780531729 142.1640642246487,395.75970905317297C134.61389522464884,392.290712053173 127.98198922464888,391.78056605317295 122.16631822464882,394.229269053173C114.92223622464888,397.188119053173 112.26947422464889,400.6571160531729 103.801040224649,417.9000710531727C99.41378022464892,427.0827100531728 95.33260722464888,434.5308500531727 94.72043122464902,434.5308500531727C94.21028422464906,434.5308500531727 90.63925822464898,434.0207040531727 86.76214422464903,433.40852805317263C69.72324822464913,430.5517070531726 60.23452122464914,438.2039060531728 56.7655242246492,457.4874470531727C55.847260224649176,462.4868840531726 54.724938224649236,468.91473105317255 54.11276222464909,471.7715520531725C53.602615224649185,474.5263440531726 52.888410224649135,478.3014280531727 52.58232222464926,480.0359270531725L52.58232222464926,480.0359270531725L52.07217622464918,483.1988360531725L52.07217622464918,483.1988360531725L52.07217622464918,483.1988360531725L52.07217622464918,483.1988360531725L52.07217622464918,483.1988360531725L52.07217622464918,483.1988360531725L52.07217622464918,483.1988360531725L52.07217622464918,483.1988360531725L52.07217622464918,483.1988360531725L43.90983022464934,483.8110120531727C33.910957224649394,484.42318805317257 28.095286224649385,487.6881260531725 23.197878224649287,495.23829505317235L23.197878224649287,495.23829505317235L19.932940224649315,500.2377320531724L19.932940224649315,500.2377320531724L19.932940224649315,500.2377320531724L19.932940224649315,500.2377320531724L19.932940224649315,500.2377320531724L19.932940224649315,500.2377320531724L19.932940224649315,500.2377320531724L19.932940224649315,500.2377320531724L19.932940224649315,500.2377320531724L20.443087224649275,512.0731330531722C20.64714522464942,518.5009800531724 20.85120422464928,526.9694140531724 20.85120422464928,530.8465280531723L20.85120422464928,530.8465280531723L20.953233224649296,537.886551053172L20.953233224649296,537.886551053172L20.953233224649296,537.886551053172L20.953233224649296,537.886551053172L20.953233224649296,537.886551053172L20.953233224649296,537.886551053172L20.953233224649296,537.886551053172L20.953233224649296,537.886551053172L20.953233224649296,537.886551053172L15.851767224649393,539.2129320531723C13.096976224649325,539.9271370531724 5.444777224649329,541.9677240531722 -0.9830697753504296,543.7022220531724C-11.900207775350395,546.6610720531722 -16.695585775350366,547.9874530531722 -40.97856377535038,554.313271053172C-46.18205877535024,555.7416820531722 -54.14034577535023,557.7822680531722 -58.62963577535015,559.0066200531722C-63.11892577535036,560.128942053172 -68.01633277535029,561.6593820531723 -69.54677277535018,562.2715580531719L-69.54677277535018,562.2715580531719L-72.40359377535015,563.291851053172L-72.40359377535015,563.291851053172L-72.40359377535015,563.291851053172L-72.40359377535015,563.291851053172L-72.40359377535015,563.291851053172L-72.40359377535015,563.291851053172L-72.40359377535015,563.291851053172L-72.40359377535015,563.291851053172L-72.40359377535015,563.291851053172L-72.40359377535015,679.6052750531715C-72.40359377535015,775.206748053171 -72.19953477535029,795.9186990531707 -71.07721277535023,796.3268170531708C-70.26097777535006,796.6329050531708 -65.15951177535027,795.7146410531709 -59.54789977535023,794.286230053171C-54.03831677535038,792.8578200531706 -45.56988277535032,790.817233053171 -40.77450477535018,789.5928820531709C-35.97912677535038,788.4705590531712 -31.387807775350495,787.1441780531708 -30.571572775350432,786.8380900531707C-29.755338775350424,786.532002053171 -23.93966677535053,784.899533053171 -17.817907775350477,783.2670640531709C-11.59411977535052,781.6345950531713 -2.411480775350526,779.1858910531711 2.587956224649531,777.8595100531708C7.689422224649434,776.533129053171 22.38164422464928,772.656015053171 35.23733822464936,769.187018053171C57.78581722464918,763.167288053171 62.785254224649236,761.8409070531712 83.19111822464896,756.433353053171C88.29258422464903,755.1069720531713 97.67928122464895,752.5562390531711 104.10712822464899,750.821740053171C114.71817822464891,747.9649190531712 125.73734422464878,745.0060690531712 146.4492962246489,739.5985150531714C150.42843922464868,738.5782220531713 158.8968732246488,736.2315480531714 165.32472022464873,734.4970490531713C176.95606222464852,731.3341400531713 186.34276022464866,728.7834070531713 205.11615522464837,723.8860000531714C210.42167922464824,722.5596190531712 220.11446422464843,719.9068560531714 226.54231222464824,718.1723580531715C232.97015922464806,716.4378600531711 242.56091522464823,713.7850970531713 247.7644102246481,712.4587160531715C267.25201022464813,707.3572500531714 276.3326192246481,704.9085470531714 287.759903224648,701.8476670531713C294.187750224648,700.1131690531714 303.67647722464795,697.5624360531714 308.6759142246479,696.2360540531714C324.8985752246478,691.9508230531717 336.93803522464776,688.7879140531716 348.9774952246476,685.5229760531715C355.40534222464765,683.7884770531716 364.8940692246476,681.2377440531716 369.89350522464764,679.9113630531716C395.29880622464776,673.2794580531715 421.1122232246475,666.3414640531715 422.43860522464746,665.8313170531716C424.1731032246474,665.1171120531718 437.43691522464707,662.0562320531717 438.6612662246475,662.0562320531717C439.0693842246473,662.0562320531717 439.2734422246472,663.3826140531718 438.9673542246475,665.1171120531718C438.2531492246471,670.2185780531715 439.5795302246474,673.0753990531716 444.9870842246473,677.3606300531715C451.00681422464737,682.1560080531714 453.14943022464723,682.3600670531715 464.2706262246473,679.2991870531716C468.4538282246471,678.1768650531717 476.310085224647,676.1362780531715 481.6156102246467,674.7078680531718C486.9211342246471,673.2794580531715 495.4915972246469,671.0348130531715 500.49103422464685,669.7084310531716C505.59250022464715,668.3820500531715 514.0609332246463,666.1374050531715 519.3664582246465,664.7089950531715C537.4256472246464,660.0156460531714 536.9155012246467,660.5257930531718 543.3433482246464,642.8747200531717C546.6082862246467,633.7941110531716 547.5265502246466,632.365700053172 549.8732242246465,631.8555540531719C553.2401922246465,631.0393190531719 559.6680392246467,629.4068500531716 574.4622902246467,625.325677053172C580.8901372246464,623.5911790531717 590.5829232246465,620.9384170531719 595.8884472246464,619.6120360531718C601.1939722246464,618.1836250531717 609.8664642246463,615.9389800531717 615.0699592246463,614.612599053172C620.1714252246459,613.1841880531719 628.7418882246459,610.9395430531719 633.9453842246462,609.613162053172C647.515283224646,606.0421360531719 651.2903682246458,604.8177840531721 652.820808224646,603.695462053172C653.7390712246458,602.8792270531718 654.0451592246461,578.3921910531719 654.0451592246461,487.6881260531725C654.0451592246461,423.1035670531728 653.6370422246459,372.190936053173 653.1268962246463,371.3747020531731C652.4126902246464,370.3544090531731 651.0863092246461,370.15035005317304 648.025430224646,370.660496053173C643.2300522246462,371.3747020531731 643.0259932246461,370.8645550531729 645.4746972246462,364.02859105317316C648.1274592246461,356.4784210531731 645.780785224646,351.37695505317316 636.700175224646,345.4592550531732C634.2514712246457,343.72475605317317 628.4358002246461,343.11258005317313 627.2114482246461,344.3369320531732ZM634.0474132246459,350.4586910531731C634.965677224646,351.27492605317303 635.679882224646,353.11145405317313 635.679882224646,354.33580505317326C635.679882224646,356.2743620531732 629.3540642246462,374.5376110531731 626.4972432246459,380.96545805317305C625.9870972246463,382.08778005317305 623.5383932246459,388.92374505317304 620.885631224646,396.26985605317293C618.3348982246462,403.5139370531729 615.7841652246461,410.4519310531729 615.2740182246462,411.574254053173C614.7638722246459,412.696576053173 613.8456082246462,415.4513680531729 613.2334322246463,417.6960130531728C612.519226224646,419.94065805317274 611.396904224646,423.1035670531728 610.5806692246463,424.8380650531727C609.8664642246463,426.4705340531728 607.0096432246467,433.8166450531727 604.4589102246464,441.16275605317287C601.8061482246462,448.4068380531727 598.337151224646,457.89556405317285 596.8067112246463,462.07876705317256C590.6849522246466,478.81157505317265 587.8281312246463,486.56580305317243 583.2368122246464,499.3194680531723C580.6860792246464,506.56355005317255 578.1353462246466,513.5015440531723 577.6251992246464,514.6238660531723C577.1150532246465,515.7461890531724 575.8907012246466,518.9090970531723 574.9724372246465,521.7659180531722C574.0541732246465,524.5207100531724 572.4217042246462,529.1120290531723 571.4014112246466,531.9688500531722C570.2790882246466,534.7236420531722 567.8303852246465,541.6616360531722 565.6877692246467,547.2732480531721C563.6471832246466,552.8848610531721 561.4025382246464,558.8025610531722 560.6883322246463,560.537060053172C559.9741272246463,562.1695290531721 559.0558632246464,564.7202620531721 558.7497752246466,566.1486720531722C558.3416582246466,567.5770830531723 557.4233942246467,570.331874053172 556.6071602246461,572.2704310531723C555.3828082246469,575.331311053172 550.7914882246464,587.676859053172 539.3642052246469,619.2039180531717C537.9357942246468,622.8769740531718 535.4870902246466,629.5088800531719 533.8546212246467,633.9981700531716C532.1201232246465,638.4874600531717 530.4876542246466,643.3848670531719 530.0795362246467,644.915307053172C529.161273224647,648.4863330531718 525.0801002246465,652.8735940531716 522.6313962246466,652.8735940531716C521.6111032246465,652.8735940531716 517.7339892246466,653.7918580531716 514.1629632246465,654.8121510531715C506.51076422464683,657.0567960531715 486.8191052246469,662.3623200531716 478.04458422464705,664.6069650531718C474.6776162246468,665.4232000531719 467.5355642246472,667.3617570531715 462.2300392246473,668.7901670531714C443.3546152246475,674.0956920531714 441.51808722464745,672.8713400531716 447.4357882246474,658.7912940531714C449.57840422464716,653.5877990531717 452.435224224647,646.5477760531718 453.7616062246472,643.1808080531717C455.0879872246475,639.8138410531718 457.12857322464714,635.2225210531719 458.1488662246474,632.8758470531719C459.2711892246471,630.5291730531717 460.18945322464725,628.3865570531716 460.18945322464725,627.978440053172C460.18945322464725,627.6723520531718 461.10771722464716,625.4277070531717 462.2300392246473,622.9790030531719C464.2706262246473,618.4897130531717 467.94368122464715,608.7969280531719 471.616737224647,598.2879080531719C472.73905922464695,594.9209400531721 474.0654402246468,591.656002053172 474.4735572246471,591.1458550531719C474.8816752246467,590.5336800531719 475.79993922464706,588.289035053172 476.51414422464717,586.044390053172C477.22834922464693,583.7997450531722 478.3506722246472,580.534806053172 479.064877224647,578.9023370531719C479.881111224647,577.167839053172 482.125756224647,571.454197053172 484.16634322464705,566.1486720531722C486.20692922464656,560.8431480531721 488.9617212246471,553.701095053172 490.28810222464693,550.3341280531721C491.6144832246469,546.9671600531722 494.26724522464684,540.0291670531722 496.2058022246469,535.0297300531722C504.7762652246467,512.6853090531723 508.6533792246468,502.78846505317256 511.91831822464695,494.21800205317254C513.8568752246465,489.1165360531726 516.6116662246466,482.4846300531725 517.9380472246467,479.3217220531725C519.2644292246466,476.1588130531726 520.3867512246468,473.1999620531726 520.3867512246468,472.68981605317254C520.3867512246468,471.87358105317253 526.2024222246466,456.36512505317273 528.4470672246466,451.36568805317256C530.6917122246464,446.2642220531727 531.6099762246467,443.40740105317263 531.3038882246467,443.1013130531728C530.8957712246468,442.69319605317264 518.8563112246468,445.65204605317274 497.9403012246468,451.36568805317256C451.61899022464723,463.8132650531725 449.57840422464716,464.32341205317266 447.3337592246476,462.58891305317286C445.39520122464734,461.16050305317253 445.4972312246471,458.30368205317257 448.7621692246474,420.55283405317266C450.08855022464724,405.146406053173 450.90478522464747,399.43276505317294 452.1291372246473,398.31044205317284C453.6595762246471,396.780002053173 458.96510122464673,395.14753305317305 484.16634322464705,388.515627053173C490.90027822464714,386.78112905317295 500.08291722464656,384.2303960531731 504.572207224647,383.006044053173C509.06149722464687,381.67966305317293 514.7751392246469,380.149223053173 517.3258722246464,379.5370470531732C519.8766052246465,378.9248710531729 527.0186572246469,377.0883440531731 533.1404162246465,375.4558740531731C539.3642052246469,373.8234050531731 548.7509022246466,371.27267205317304 554.0564272246468,369.9462910531731C559.3619512246464,368.5178810531731 569.0547362246466,365.86511805317315 575.4825842246462,364.130620053173C587.0118972246464,360.9677110531732 597.0107702246462,358.3149490531731 615.4780772246459,353.51957105317314C620.6815722246463,352.1931900531731 626.0891262246462,350.56072105317315 627.5175362246459,350.0505740531731C631.0885632246461,348.52013405317336 632.2108852246458,348.6221640531731 634.0474132246459,350.4586910531731ZM255.23763266009195,362.60018005317306C258.20817664354064,363.12785479580896 260.7477643046149,365.2215781653184 262.25257322464796,366.3752650531731C263.8850422246482,367.70164605317314 269.80274322464794,375.35384505317313 275.31232622464796,383.5161910531729C294.799926224648,412.2884590531729 304.7987992246479,427.0827100531728 314.6956432246479,441.4688440531727C320.2052272246478,449.52916005317275 324.49045822464774,456.36512505317273 324.1843702246479,456.56918305317265C323.67422422464784,457.1813590531726 320.51131522464794,457.99759405317263 311.532735224648,460.1402100531726L311.532735224648,460.1402100531726L307.1454742246479,461.26253205317255L307.1454742246479,461.26253205317255L307.1454742246479,461.26253205317255L307.1454742246479,461.26253205317255L307.1454742246479,461.26253205317255L307.1454742246479,461.26253205317255L307.1454742246479,461.26253205317255L307.1454742246479,461.26253205317255L307.1454742246479,461.26253205317255L296.3303662246481,451.67177605317283C290.310636224648,446.46828105317263 283.7807602246481,440.7546390531727 281.7401732246481,439.1221700531728C277.4549422246483,435.65317305317274 250.62123122464828,412.5945470531729 247.45832222464804,409.7377260531729C246.33600022464822,408.71743305317295 239.0919182246484,402.493644053173 231.43971922464806,395.9637680531731C223.68549122464816,389.43389105317317 217.35967322464836,383.8222790531731 217.35967322464836,383.5161910531729C217.35967322464836,382.904015053173 244.70353022464832,364.5387370531731 246.9481752246483,363.7225030531731C248.65985287182258,363.10007481783697 252.16629655587877,362.05228787457975 255.23763266009195,362.60018005317306ZM327.65336722464775,374.333552053173C330.50503783706523,377.2924020531731 333.1629502246478,383.108073053173 335.5096252246479,390.6582430531729C337.3461522246477,396.5759440531729 340.81514922464777,406.472788053173 352.24243322464775,438.91811105317277C354.2830192246476,444.4276940531727 355.50737122464756,449.01901405317267 355.20128322464774,449.2230720531726C354.8951952246478,449.42713105317273 350.9160522246477,450.34539505317264 346.4267622246477,451.36568805317256C341.9374722246478,452.2839520531726 334.8974492246479,454.93671405317275 333.2649802246478,454.83468505317273C330.4081592246477,454.83468505317273 329.3878652246479,453.7123620531728 323.2661062246477,444.4276940531727C319.491021224648,438.71405205317274 312.96114522464774,428.91923805317265 308.6759142246479,422.79747905317276C304.39068222464795,416.5736900531729 299.59530422464815,409.7377260531729 298.1668942246478,407.4930810531729C296.63645422464816,405.24843605317295 295.10601422464816,402.9017610531729 294.5958682246481,402.3916150531729C288.16802022464805,393.923181053173 280.1077042246481,381.57763405317297 280.8219092246483,380.96545805317305C281.025968224648,380.863428053173 286.229463224648,379.0269010531731 292.351223224648,376.9863140531731C298.575011224648,374.84369905317305 304.59474122464786,372.70108305317314 305.71706322464803,372.088907053173C309.08403122464784,370.4564380531731 317.1443472246478,368.6199100531731 319.3889922246479,369.1300570531731C323.2661062246477,369.1300570531731 324.8016966122303,371.374702053173 327.65336722464775,374.333552053173ZM195.01525222464846,373.7213760531732C196.95380922464852,374.43558105317305 204.40194922464838,380.04719405317303 211.4419722246485,386.168953053173C218.4819952246483,392.290712053173 225.3179602246483,398.208413053173 226.64434122464826,399.2287060531729C227.97072222464834,400.3510280531728 235.3168332246484,406.57481705317286 242.86700322464816,413.10469305317287C250.41717222464825,419.634570053173 257.7632832246482,425.9603880531728 259.0896642246483,426.9806810531728C261.6403972246482,429.0212670531728 263.47692522464814,430.65373605317274 277.55697122464807,442.8972550531728C282.3523492246481,447.0804570531726 289.5964312246478,453.30424505317274 293.67760422464795,456.77324205317245C297.8608062246481,460.34426805317264 300.51356822464794,463.3031180531726 299.79936322464806,463.50717705317265C290.61672422464795,466.2619690531726 288.474108224648,466.46602705317264 285.3111992246481,464.8335580531726C283.57670122464816,463.9152940531725 274.8021802246481,459.73209205317266 265.82359922464804,455.3448320531728C256.84501922464807,451.05960005317263 243.58120822464815,444.7337820531727 236.2350972246483,441.16275605317287C220.82867022464853,433.7146160531728 200.11671822464842,423.71574305317284 184.5062322246486,416.26760205317277C178.3844732246484,413.4107810531729 156.0400522246486,402.79973205317293 156.34614022464865,401.88146805317297C156.85628622464873,400.3510280531728 167.5693652246486,387.49533405317305 173.79315322464873,380.863428053173C181.3433232246485,372.80311205317315 187.15899422464855,370.8645550531729 195.01525222464846,373.7213760531732ZM648.7396352246467,488.30030205317246L648.7396352246467,488.30030205317246L648.4335472246464,601.144729053172L648.4335472246464,601.144729053172L648.4335472246464,601.144729053172L648.4335472246464,601.144729053172L648.4335472246464,601.144729053172L648.4335472246464,601.144729053172L648.4335472246464,601.144729053172L648.4335472246464,601.144729053172L648.4335472246464,601.144729053172L638.7407622246458,603.389374053172C633.4352372246462,604.5116960531719 628.5378302246459,605.8380770531719 627.9256542246458,606.2461950531718C627.3134782246464,606.5522830531718 622.5181002246463,607.8786640531717 617.2125752246459,609.0009860531721C611.9070512246462,610.123309053172 606.7035552246462,611.551719053172 605.5812332246462,612.0618660531719C604.4589102246464,612.5720130531716 599.8675912246465,614.0004230531717 595.3783012246461,615.0207160531716C585.8895742246464,617.3673910531719 570.8912642246464,621.3465340531716 560.6883322246463,624.2033550531717C556.8112182246464,625.325677053172 552.5259872246465,626.2439410531717 551.3016352246464,626.2439410531717C548.8529312246469,626.3459710531718 548.1387262246467,624.9175600531717 549.9752542246465,623.7952380531718C550.4854002246464,623.489150053172 551.9138112246465,619.9181240531718 553.1381632246464,615.9389800531717C554.3625142246465,611.9598370531717 555.9949842246465,607.4705470531719 556.7091892246469,606.0421360531719C557.5254232246464,604.6137260531721 558.1375992246467,602.777198053172 558.1375992246467,602.0629930531717C558.1375992246467,601.348787053172 559.0558632246464,598.9000840531722 560.0761562246464,596.4513800531719C561.1984792246465,594.104706053172 562.8309482246466,589.6154160531718 563.7492122246463,586.5545360531719C564.7695052246463,583.4936570531719 565.8918282246461,580.4327770531721 566.2999452246465,579.922630053172C566.7080622246465,579.3104540531721 568.0344432246466,575.9434870531719 569.2587952246463,572.2704310531723C571.6054692246464,564.7202620531721 576.0947592246464,552.3747140531722 577.5231702246465,549.3138350531722C578.0333172246467,548.1915120531723 579.2576682246461,544.7225150531723 580.1759322246464,541.6616360531722C581.0941962246466,538.6007560531723 582.2165192246464,535.5398760531722 582.6246362246463,535.0297300531722C583.0327532246465,534.4175540531724 584.4611642246464,530.7444980531724 585.6855162246466,526.8673840531721C586.9098672246462,522.8882410531722 588.3382782246463,519.2151850531723 588.7463952246464,518.7050390531723C589.2565422246462,518.0928630531724 590.0727762246463,515.6441590531723 590.7869812246465,513.0934260531724C591.3991572246462,510.54269305317246 592.6235092246463,507.0736960531724 593.4397442246466,505.44122705317227C594.1539492246463,503.70672905317247 595.6843892246461,499.82961505317223 596.8067112246463,496.7687350531726C602.7244122246464,479.72983905317267 604.2548522246466,475.5466370531725 605.4792032246464,472.79184505317255C606.2954382246462,471.0573470531725 607.4177612246467,468.09849605317254 607.9279072246461,466.1599390531726C608.5400832246462,464.22138205317265 610.6826992246461,458.20165205317244 612.7232852246461,452.8961280531727C614.7638722246459,447.5906030531726 617.416634224646,440.24449205317273 618.5389562246467,436.57143705317276C619.6612792246463,432.89838105317267 620.9876602246459,429.4293840531729 621.395777224646,428.91923805317265C621.8038952246461,428.30706205317273 622.9262172246463,425.34821205317286 623.9465102246463,422.2873320531729C624.9668032246464,419.2264520531729 626.0891262246462,416.1655730531728 626.4972432246459,415.65542605317285C626.905361224646,415.04325005317276 628.0276832246461,411.8803410531729 629.0479762246459,408.5133740531728C629.9662402246458,405.146406053173 631.0885632246461,401.88146805317297 631.4966802246463,401.3713220531729C632.0068262246461,400.75914605317297 633.8433542246464,395.9637680531731 635.5778532246457,390.6582430531729C640.2712012246461,376.9863140531731 640.8833772246464,376.27210905317304 647.719342224646,375.4558740531731C648.7396352246467,375.35384505317313 648.9436932246463,398.208413053173 648.7396352246467,488.30030205317246ZM383.15731722464733,395.045504053173C388.9729882246475,398.31044205317284 391.2176332246475,402.28958505317274 392.6460432246475,411.676283053173C394.6866302246471,425.85835805317276 395.0947472246475,437.1836130531726 393.6663372246474,438.30593505317256C392.95213122464753,438.91811105317277 389.38110522464734,440.0404340531726 385.7080502246477,440.9586970531727C382.0349942246476,441.77493205317273 375.60714722464746,443.50943005317265 371.42394522464787,444.6317530531727C367.2407432246477,445.75407505317276 363.05754122464776,446.7743690531728 362.03724822464784,446.7743690531728C360.8128962246478,446.7743690531728 359.4865152246476,444.32566505317277 357.34389922464794,437.7957890531727C347.54908422464786,409.431638053173 344.6922632246478,401.16726305317286 343.67197022464774,399.1266770531728C343.05979422464753,397.80029505317293 342.7537062246477,396.5759440531729 343.05979422464753,396.26985605317293C343.3658822246477,395.9637680531731 348.7734362246477,395.249562053173 355.20128322464774,394.637387053173C361.62913022464755,394.127240053173 364.4859522246475,393.208976053173 367.85291922464756,393.2089760531731C371.2198862246476,393.2089760531731 379.38223222464745,392.90288805317306 383.15731722464733,395.045504053173ZM150.83655722464874,406.0646700531729C160.22325422464866,410.65599005317307 173.18097822464853,416.8797780531727 179.60882522464857,419.94065805317274C186.0366722246485,423.00153705317274 194.6071352246483,427.0827100531728 198.4842492246484,428.91923805317265C202.46339222464854,430.75576605317275 212.9724122246485,435.85723205317277 221.95099222464836,440.14246305317283C249.70296722464815,453.6103330531728 263.57895422464804,460.1402100531726 269.19056722464796,462.69094205317265C272.04738822464816,463.9152940531725 274.49609222464795,465.5477630531726 274.49609222464795,466.0579100531727C274.49609222464795,467.4863200531727 265.21142422464817,467.4863200531727 259.1916942246481,466.0579100531727C254.19225722464824,464.8335580531726 230.52145522464838,460.2422390531726 209.70747422464848,456.36512505317273C202.46339222464854,455.03874405317254 190.52596222464848,452.79409905317243 183.17985122464853,451.4677170531727C175.9357692246487,450.0393070531726 162.36587022464863,447.48857405317267 153.08120222464873,445.75407505317276C143.79653422464884,444.0195770531727 130.02257522464885,441.4688440531727 122.47240622464886,440.0404340531726C114.92223622464888,438.6120230531727 107.16800822464893,437.1836130531726 105.43351022464896,436.8775250531728C103.59698222464903,436.57143705317276 102.06654222464886,435.85723205317277 102.06654222464886,435.1430260531728C102.06654222464886,434.5308500531727 105.63756822464904,426.9806810531728 110.02482922464895,418.3081890531729C117.3709402246489,403.6159670531729 118.18717422464903,402.493644053173 122.47240622464886,400.24899905317284C125.02313922464884,398.922618053173 128.5941652246488,397.80029505317293 130.4306932246489,397.80029505317293C132.57330822464888,397.80029505317293 140.02144922464885,400.861175053173 150.83655722464874,406.0646700531729ZM442.1302632246473,434.12273305317285C442.02823422464706,435.75520205317275 441.51808722464745,442.4891370531726 440.90591122464724,449.12104305317257C439.5795302246474,463.3031180531726 440.08967722464723,465.2416750531727 447.537817224647,470.1390830531726C453.047400224647,473.71010905317246 455.29204522464744,473.9141680531725 463.250332224647,471.6695230531725C466.31121222464714,470.7512590531726 472.73905922464695,469.01676005317245 477.5344372246473,467.7924080531725C482.3298152246471,466.46602705317264 486.9211342246471,465.13964605317256 487.73736922464724,464.8335580531726C488.553604224647,464.5274700531727 493.655069224647,463.2010890531726 498.96059422464697,462.07876705317256C504.26611922464684,460.8544150531726 509.4696142246468,459.52803405317275 510.38787822464695,459.0178870531727C512.5304942246466,457.7935350531727 520.3867512246468,456.46715405317264 520.3867512246468,457.28338905317264C520.3867512246468,457.5894770531726 517.8360182246465,464.32341205317266 514.7751392246469,472.1796690531726C511.71425922464704,480.0359270531725 509.1635262246469,486.7698620531726 509.1635262246469,487.17797905317263C509.1635262246469,487.48406705317245 508.4493212246469,489.2185660531725 507.6330862246469,490.9530640531725C506.3067052246467,493.80988505317237 504.6742362246469,498.29917505317235 499.266682224647,512.5832800531723C498.4504482246468,514.8279250531724 497.1240662246466,517.9908340531723 496.3078322246468,519.7253320531723C495.59362722464704,521.3578010531722 494.06318722464704,525.3369450531723 492.9408642246472,528.3978240531723C491.8185422246468,531.4587040531724 489.4718672246469,537.6824920531722 487.73736922464724,542.1717820531723C486.0028712246471,546.6610720531722 483.5541672246472,553.0889190531724 482.4318442246469,556.4558870531722C481.3095222246472,559.822854053172 479.9831412246472,562.9857630531723 479.5750232246468,563.5979390531721C479.166906224647,564.1080860531721 478.04458422464705,567.1689650531721 477.024290224647,570.229845053172C476.0039972246473,573.290725053172 474.8816752246467,576.2495750531723 474.4735572246471,576.8617510531719C474.0654402246468,577.371897053172 473.147176224647,579.718572053172 472.432971224647,581.9632170531721C471.718766224647,584.207862053172 470.29035522464704,587.8809170531719 469.37209222464713,590.1255620531718C468.3517982246472,592.3702070531718 466.821359224647,596.2473210531722 466.005124224647,598.7980540531719C464.3726552246473,603.4914030531719 460.0874232246471,614.3065110531719 457.6387202246471,619.7140650531717C456.2103092246471,622.774944053172 453.3534882246474,629.9169970531718 449.986521224647,638.8955770531718C448.8641982246474,641.6503690531717 447.6398462246471,644.4051600531717 447.12970022464725,645.0173360531716C446.5175242246473,645.7315410531718 445.4972312246471,648.1802450531717 444.88505522464726,650.5269190531717C443.25258622464713,655.9344730531717 445.59926022464725,655.0162090531717 412.2356732246473,663.6887020531715C406.9301482246473,665.1171120531718 398.46171522464755,667.3617570531715 393.36024922464725,668.6881380531715C388.36081222464753,670.0145190531716 380.5045542246475,672.0551060531716 376.01526422464775,673.1774280531714C371.52597422464777,674.2997510531716 365.8123322246476,675.9322200531717 363.26159922464757,676.7484540531715C360.71086622464753,677.5646890531716 355.50737122464756,678.9930990531715 351.52822822464776,679.8093340531716C347.65111422464764,680.7275980531716 343.4679112246475,681.8499200531714 342.34558922464765,682.3600670531715C341.22326622464806,682.9722430531715 336.4278882246479,684.2986240531716 331.63251022464766,685.4209470531714C315.1037612246478,689.4000900531715 309.69620722464805,690.8285000531715 303.268360224648,692.7670580531714C299.79936322464806,693.8893800531715 293.77963322464797,695.4198200531715 290.0045482246482,696.2360540531714C286.229463224648,697.1543180531714 282.2503202246481,698.2766410531714 281.127997224648,698.7867870531715C280.0056752246481,699.1949050531714 275.6184142246481,700.4192560531712 271.43521222464807,701.3375200531711C267.25201022464813,702.2557840531714 262.86474922464805,703.4801360531713 261.7424272246481,703.9902830531714C260.62010422464806,704.5004290531714 255.11052122464793,706.0308690531713 249.49890822464823,707.3572500531714C243.88729622464808,708.6836310531713 234.7046572246482,711.0303060531712 229.0930452246484,712.5607450531713C223.48143222464836,713.9891560531714 215.21705722464839,716.1317720531714 210.7277672246484,717.2540940531715C206.23847722464853,718.3764170531713 201.6471582246483,719.7027980531713 200.52483522464826,720.2129440531714C199.40251322464866,720.7230910531714 194.09698822464844,722.1515010531712 188.79146322464857,723.2738240531713C183.48593922464846,724.498176053171 178.18041422464847,725.9265860531713 177.05809222464853,726.3347040531714C175.9357692246487,726.8448500531713 171.3444502246486,728.171231053171 166.8551602246486,729.2935540531714C162.36587022464863,730.4158760531712 154.3055532246487,732.4564630531712 149.0000292246487,733.8848730531712C143.6945042246487,735.3132840531712 135.63418822464888,737.455899053171 131.14489822464878,738.5782220531713C126.65560822464892,739.7005440531714 120.02370222464896,741.5370720531712 116.35064722464887,742.6593950531714C112.67759122464889,743.7817170531711 107.47409622464892,745.1080980531711 104.61727522464884,745.7202740531714C101.86248322464888,746.3324500531713 98.59754522464902,747.148685053171 97.47522322464897,747.7608610531712C96.35290022464898,748.2710070531712 91.55752222464906,749.5973880531711 86.76214422464903,750.7197110531712C81.96676622464912,751.842033053171 73.09021522464911,754.086678053171 66.86642722464904,755.8211770531711C60.74466822464916,757.453646053171 51.76608822464914,759.8003200531709 46.970710224649224,761.0246720531712C42.17533222464931,762.2490240531711 37.37995422464917,763.5754050531712 36.25763122464929,764.0855520531711C35.13530922464929,764.5956980531708 30.339931224649376,765.922079053171 25.544553224649405,767.0444020531711C20.74917522464932,768.166724053171 11.566536224649383,770.5133990531709 5.138689224649397,772.247897053171C-6.900770775350395,775.512835053171 -17.919936775350493,778.4716860531711 -34.14259877535028,782.7569170531712C-39.14203577535028,784.083298053171 -44.03944277535021,785.511709053171 -44.85567777535039,785.8177970531709C-46.99829277535025,786.736061053171 -63.93515977535026,790.613175053171 -65.7716877753503,790.613175053171C-67.09806877535027,790.613175053171 -67.30212777535024,776.125011053171 -67.30212777535024,678.4829530531715L-67.30212777535024,678.4829530531715L-67.30212777535024,566.3527310531722L-67.30212777535024,566.3527310531722L-67.30212777535024,566.3527310531722L-67.30212777535024,566.3527310531722L-67.30212777535024,566.3527310531722L-67.30212777535024,566.3527310531722L-67.30212777535024,566.3527310531722L-67.30212777535024,566.3527310531722L-67.30212777535024,566.3527310531722L-60.874280775350144,564.7202620531721C-57.40528377535037,563.9040270531722 -49.2429387753503,561.7614120531721 -42.81509077535037,560.026913053172C-36.387243775350385,558.2924150531722 -27.408663775350533,555.9457400531722 -22.919373775350493,554.8234180531722C-18.430083775350397,553.701095053172 -14.04282277535043,552.4767430531722 -13.226588775350365,552.170656053172C-11.696148775350593,551.5584800531722 -2.513509775350542,549.0077470531724 18.402500224649316,543.6001930531722C29.42166722464941,540.7433720531722 34.72719122464929,539.3149610531723 57.68378822464922,533.1932020531723C62.785254224649236,531.8668210531723 67.58063222464921,530.5404400531725 68.39686722464916,530.1323230531722C69.21310122464905,529.8262350531722 74.72268422464919,528.2957950531722 80.64038522464904,526.8673840531721C90.84331722464901,524.3166510531722 97.27116422464894,522.6841820531723 119.41152622464887,516.7664820531724C124.71705122464886,515.3380710531724 134.20577822464878,512.8893680531725 140.32753722464878,511.25689805317234C146.5513252246488,509.62442905317243 152.26496722464861,507.9919600531724 153.08120222464873,507.6858720531724C153.89743622464863,507.37978405317256 158.28469722464882,506.15543305317226 162.7739872246488,505.0331100531723C167.26327722464856,503.9107870531726 175.3235932246485,501.8702010531723 180.6291182246486,500.44179105317255C208.9932692246486,492.78959205317267 214.5028522246484,491.3611810531726 221.95099222464836,489.5246530531724C226.44028222464834,488.4023310531726 433.96791822464746,432.79635205317277 436.21256322464745,431.98011705317276C441.4160582246472,430.14359005317283 442.334322224647,430.44967805317276 442.1302632246473,434.12273305317285ZM125.53328522464886,446.3662510531726C151.44873322464872,451.36568805317256 164.81457322464865,453.8143920531726 179.60882522464857,456.36512505317273C187.6691412246485,457.7935350531727 195.11728122464848,459.2219460531726 196.13757422464852,459.63006305317265C198.07613122464835,460.2422390531726 222.86925622464838,464.7315290531726 233.9904522246482,466.46602705317264C237.7655372246482,467.0782030531726 240.82641622464809,467.8944380531726 240.82641622464809,468.30255505317257C240.82641622464809,468.6086430531725 237.0513312246482,469.2208190531725 232.46001222464832,469.52690705317264C227.76666322464843,469.83299505317257 218.27793722464838,470.5472000531727 211.23791422464836,471.15937605317254C204.19789122464846,471.7715520531725 188.3833462246485,472.9959040531726 176.03779922464838,473.8121380531725C163.69225122464871,474.6283730531725 148.2858242246487,475.75069505317254 141.85797722464866,476.3628710531726C135.43012922464885,476.8730180531726 119.81964422464887,477.9953400531725 107.16800822464893,478.91360405317255C94.51637222464899,479.72983905317267 78.59979922464908,480.9541910531726 71.76383422464909,481.6683960531725C64.92787022464921,482.28057205317236 59.01016922464913,482.58666005317264 58.602052224649185,482.28057205317236C58.29596422464925,481.87245505317253 58.500023224649055,479.1176630531726 59.01016922464913,476.1588130531726C59.622345224649166,473.1999620531726 61.05075622464915,465.64979305317263 62.27510722464905,459.52803405317275C64.41772322464914,448.20277905317255 65.94816322464908,444.93784105317263 70.64151222464903,441.3668150531728C76.25312422464901,437.1836130531726 79.10994522464898,437.38767105317277 125.53328522464886,446.3662510531726ZM261.84445622464824,473.1999620531726C261.5383682246482,473.71010905317246 260.211987224648,474.32228505317244 258.9876352246484,474.6283730531725C257.6612542246482,474.9344610531725 251.13137822464824,476.66895905317256 244.3974422246484,478.40345805317247C237.6635072246484,480.1379560531725 228.07275122464847,482.68868905317254 222.9712852246485,484.0150700531725C217.97184922464822,485.34145105317236 208.4831222246483,487.8921840531725 202.05527522464848,489.62668305317254C195.62742822464844,491.4632110531725 186.24073022464842,494.0139440531725 181.13926422464868,495.23829505317235C160.32528322464867,500.64584905317247 151.9588792246488,502.89049405317235 140.83768322464874,505.95137405317234C134.4098362246488,507.7879020531724 125.02313922464884,510.33863505317254 119.92167322464888,511.5629860531725C114.92223622464888,512.8893680531725 106.35177322464898,515.1340130531725 101.04624922464893,516.5624230531723C95.740724224649,518.0928630531724 86.966203224649,520.4395370531723 81.66067822464908,521.7659180531722C76.35515422464908,523.1943290531722 66.96845622464917,525.6430330531723 60.74466822464916,527.2755020531722C54.62290922464928,528.9079710531722 45.33824022464927,531.4587040531724 40.23677522464931,532.7850850531723C35.13530922464929,534.1114660531723 30.339931224649376,535.5398760531722 29.72775522464923,535.9479940531725C27.789198224649283,537.1723460531721 26.870934224649318,532.581026053172 26.05469922464937,517.5827160531722C25.23846522464936,501.15599605317243 26.05469922464937,497.7890280531724 32.27848822464921,492.9936500531725C36.15560222464933,490.1368290531726 40.848950224649286,489.3205950531725 66.35628022464908,487.58609605317247C74.51862622464915,487.0759500531725 95.63869522464904,485.4434810531724 113.28976722464893,484.1171000531725C130.94083922464887,482.79071805317255 161.9577522246487,480.44404405317243 182.1595582246486,479.01563405317256C202.36136322464853,477.58722305317247 221.23678722464837,476.1588130531726 223.99157922464832,475.75069505317254C226.84840022464817,475.3425780531727 236.2350972246483,474.5263440531726 244.90758922464823,473.8121380531725C253.58008122464827,473.0979330531726 261.13025122464813,472.4857570531726 261.5383682246482,472.3837280531727C262.04851522464804,472.3837280531727 262.15054422464806,472.68981605317254 261.84445622464824,473.1999620531726ZM624.9668032246464,355.05001105317325C621.5998362246462,356.17233305317325 608.5400832246462,359.74335905317315 591.2971282246465,364.130620053173C585.1753692246466,365.7630890531732 580.0739032246465,367.089470053173 580.0739032246465,367.19150005317306C580.0739032246465,367.293529053173 571.0953232246463,369.74223305317304 551.5056942246467,374.84369905317305C546.5062572246463,376.068050053173 537.0175302246466,378.61878305317316 530.5896832246467,380.4553110531731C524.1618362246465,382.1898100531731 514.7751392246469,384.740543053173 509.67367322464696,386.06692405317307C504.6742362246469,387.393305053173 496.1037732246471,389.53592105317296 490.7982492246468,390.9643310531729C485.49272422464657,392.39274105317304 476.51414422464717,394.73941605317304 470.9025312246469,396.1678260531731C465.290919224647,397.6982660531729 459.47524822464726,399.3307350531729 457.94480822464703,399.9429110531729C454.78189922464736,401.26929205317305 454.5778402246472,401.88146805317297 452.9453712246471,419.2264520531729C452.435224224647,425.6543000531728 451.3129022246471,437.1836130531726 450.5986972246471,444.7337820531727C449.374345224647,457.7935350531727 449.68043322464695,460.9564440531726 452.1291372246473,459.4260040531726C452.53725422464714,459.2219460531726 457.4346612246472,457.7935350531727 462.9442442246471,456.36512505317273C468.4538282246471,454.93671405317275 477.3303782246472,452.69206905317264 482.6359032246468,451.26365905317266C528.3450382246467,438.91811105317277 530.7937422246466,438.4079640531728 533.3444752246467,439.53028705317263C534.6708562246465,440.14246305317283 535.6911492246463,441.26478505317266 535.6911492246463,442.0810200531728C535.6911492246463,443.61146005317266 533.1404162246465,450.5494530531728 525.0801002246465,471.26140505317244C522.0192202246467,478.81157505317265 517.5299302246469,490.54494705317245 514.9791972246467,497.27888205317254C505.59250022464715,521.7659180531722 498.7565352246467,539.4169910531721 493.655069224647,552.3747140531722C485.49272422464657,573.3927540531721 484.26837222464695,576.5556630531719 473.75935222464733,604.409667053172C472.3309422246469,608.2867810531718 468.6578862246469,617.3673910531719 465.59700722464714,624.6114720531717C462.63815622464716,631.7535250531716 460.18945322464725,637.8752840531718 460.18945322464725,638.1813720531717C460.18945322464725,638.8955770531718 457.12857322464714,646.1396590531717 451.9250782246474,658.0770890531716C449.374345224647,663.7907310531715 448.2520222246474,668.1779920531715 449.2723162246472,668.1779920531715C449.374345224647,668.1779920531715 451.1088432246474,667.6678450531715 453.047400224647,667.0556690531715C456.41436822464703,666.0353760531716 462.7401862246474,664.3008770531716 484.98257722464695,658.5872360531715C514.6731092246466,650.9350370531716 522.6313962246466,648.6903920531716 524.1618362246465,647.5680690531716C524.7740122246464,647.0579220531716 525.5902462246468,645.4254530531715 525.9983642246468,643.8950140531717C526.4064812246465,642.3645740531716 527.3247452246464,639.7118110531719 528.0389502246467,638.0793420531719C528.7531552246467,636.3448440531716 529.9775072246466,633.1819350531719 530.5896832246467,630.9372900531718C531.3038882246467,628.6926450531719 532.4262112246467,625.4277070531717 533.2424452246469,623.7952380531718C534.8749142246468,620.1221820531719 540.2824682246469,605.2259020531718 542.4250842246465,598.7980540531719C543.2413192246465,596.2473210531722 544.2616122246463,593.288471053172 544.7717582246466,592.1661490531719C545.2819052246466,591.0438260531722 547.4245212246467,585.5342430531721 549.4651072246463,579.922630053172C551.5056942246467,574.3110180531719 554.2604852246468,566.7608480531719 555.6888962246467,563.0877930531723C557.0152772246463,559.4147370531721 560.2802152246466,550.7422450531722 562.7289192246465,543.7022220531724C565.2796522246467,536.6621990531721 569.7689422246467,524.5207100531724 572.6257632246463,516.6644520531725C575.4825842246462,508.8081950531723 578.8495512246466,499.4214970531724 580.0739032246465,495.74844205317254C581.2982552246465,492.07538605317256 583.1347832246461,487.2800080531723 583.951017224646,485.03536305317255C586.093633224646,479.5257800531725 597.4188872246464,448.81495505317264 604.0507932246462,430.44967805317276C607.0096432246467,422.2873320531729 609.7644352246461,414.73716205317294 610.274581224646,413.61484005317294C610.7847282246462,412.49251705317283 612.2131392246458,408.81946205317297 613.3354612246462,405.45249405317276C614.5598132246462,402.085527053173 616.8044582246464,395.8617380531728 618.3348982246462,391.678536053173C624.6607152246463,374.333552053173 631.5987092246462,354.7439230531731 631.5987092246462,354.33580505317326C631.5987092246462,353.62160005317315 628.231742224646,354.0297170531731 624.9668032246464,355.05001105317325ZM385.7080502246477,464.1193530531725C383.76949322464753,464.5274700531727 377.74976322464767,465.85385105317266 372.44423822464745,467.0782030531726C367.1387142246477,468.20052605317267 361.62913022464755,469.62893605317254 360.20072022464757,470.1390830531726C358.7723092246476,470.7512590531726 353.9769312246479,472.1796690531726 349.48764122464746,473.1999620531726C344.9983512246478,474.32228505317244 336.5299182246477,476.4649010531725 330.61221722464774,477.8933110531726C324.694517224648,479.4237510531725 319.18493322464786,480.9541910531726 318.26667022464784,481.46433705317247C317.34840622464793,481.97448405317255 314.8997022246478,482.68868905317254 312.85911622464783,482.9947770531727C310.61447122464796,483.50492405317243 308.1657672246478,484.93333405317253 306.63532722464794,486.7698620531726L306.63532722464794,486.7698620531726L304.0845942246478,489.83074105317246L304.0845942246478,572.4744900531718L304.0845942246478,655.2202680531717L304.0845942246478,655.2202680531717L304.0845942246478,655.2202680531717L304.0845942246478,655.2202680531717L304.0845942246478,655.2202680531717L304.0845942246478,655.2202680531717L304.0845942246478,655.2202680531717L304.0845942246478,655.2202680531717L304.0845942246478,655.2202680531717L308.6759142246479,659.7095580531719C314.797673224648,665.5252290531714 316.9402882246479,665.9333470531717 327.44930822464784,663.1785550531716C332.34671622464776,661.9542030531716 340.81514922464777,659.8115870531715 346.4267622246477,658.383177053172C352.0383742246476,657.0567960531715 357.44592822464784,655.5263560531718 358.36419222464764,654.9141800531717C359.38448522464756,654.4040330531717 360.8128962246478,653.8938870531716 361.62913022464755,653.8938870531716C362.4453652246477,653.8938870531716 364.28189322464783,652.4654760531715 365.7103032246476,650.7309780531715L365.7103032246476,650.7309780531715L368.36306522464764,647.5680690531716L368.36306522464764,647.5680690531716L368.36306522464764,647.5680690531716L368.36306522464764,647.5680690531716L368.36306522464764,647.5680690531716L368.36306522464764,647.5680690531716L368.36306522464764,647.5680690531716L368.36306522464764,647.5680690531716L368.36306522464764,647.5680690531716L368.36306522464764,624.9175600531717C368.36306522464764,598.6960250531718 367.3427722246475,601.144729053172 380.09643722464756,598.1858790531718C383.97355122464745,597.3696440531719 387.64660722464777,596.2473210531722 388.2587832246475,595.8392040531718C388.7689292246475,595.431087053172 391.3196622246475,594.5128230531718 393.87039522464755,593.7986180531719C412.54176122464725,588.3910640531718 432.2334192246472,571.7602850531722 441.3140292246471,553.5990660531721C443.86476222464734,548.5996290531722 445.9053482246474,543.7022220531724 445.9053482246474,542.6819290531723C445.9053482246474,541.5596060531722 446.31346522464713,540.5393130531722 446.8236122246471,540.2332250531722C447.7418762246471,539.6210490531722 449.47637422464726,530.3363810531721 450.2926092246474,521.7659180531722C450.4966672246474,519.5212730531722 450.2926092246474,513.6035730531726 449.8844922246473,508.7061650531722C448.1499932246474,490.2388590531723 436.8247392246473,474.8324310531725 418.7655492246475,466.56805705317254C413.4600252246474,464.1193530531725 411.3174092246474,463.71123605317257 401.01244822464736,463.50717705317265C394.58460022464755,463.40514805317275 387.64660722464777,463.60920605317267 385.7080502246477,464.1193530531725ZM417.84728522464735,472.0776400531727C441.2119992246475,484.0150700531725 446.6195532246474,517.4806870531722 430.2948622246474,549.3138350531722C425.39745522464744,558.8025610531722 408.8687052246475,574.7191350531723 398.8698322246474,579.6165420531719C390.0953102246477,583.9017740531718 379.89237822464764,587.472800053172 366.5265382246478,591.0438260531722L366.5265382246478,591.0438260531722L357.64998722464776,593.390501053172L357.64998722464776,593.390501053172L357.64998722464776,593.390501053172L357.64998722464776,593.390501053172L357.64998722464776,593.390501053172L357.64998722464776,593.390501053172L357.64998722464776,593.390501053172L357.64998722464776,593.390501053172L357.64998722464776,593.390501053172L357.34389922464794,617.8775370531717C357.13984022464757,639.6097820531717 356.93578222464754,642.5686320531717 355.30331322464764,643.9970430531718C353.77287322464775,645.3234240531716 316.124054224648,655.9344730531717 312.65505722464815,655.9344730531717C311.94085222464804,655.9344730531717 310.818529224648,655.0162090531717 310.2063532246478,653.9959160531715C308.573884224648,650.9350370531716 308.87997222464793,492.6875620531724 310.51244122464783,490.54494705317245C311.7367932246479,489.01450705317234 318.98087522464795,486.46377405317253 332.6528042246477,482.89274805317245C336.3258592246477,481.97448405317255 344.0800872246478,479.9338970531726 349.99778822464776,478.3014280531727C380.5045542246475,470.0370530531725 389.6871932246476,468.30255505317257 402.0327412246474,468.6086430531725C410.5011742246474,468.91473105317255 412.43973122464746,469.3228480531726 417.84728522464735,472.0776400531727ZM387.2384892246475,473.3019920531726C382.23905322464776,474.0161970531725 366.4245082246476,477.9953400531725 340.3050032246477,485.03536305317255C333.06092122464787,486.9739200531725 324.79654622464767,489.1165360531726 321.9397252246478,489.72871205317256C319.18493322464786,490.3408880531724 316.02202522464796,491.25915205317244 315.1037612246478,491.7692980531725C313.4712922246479,492.6875620531724 313.2672332246479,497.9930870531723 313.2672332246479,571.7602850531722C313.2672332246479,615.428833053172 313.67535022464784,650.9350370531716 314.0834682246479,651.2411250531717C314.593614224648,651.5472130531715 316.53217122464804,651.3431540531717 318.470728224648,650.7309780531715C321.9397252246478,649.6086550531717 334.3873022246476,646.2416880531717 346.73285022464785,642.9767500531717L346.73285022464785,642.9767500531717L353.05866722464776,641.3442810531716L353.05866722464776,641.3442810531716L353.05866722464776,641.3442810531716L353.05866722464776,641.3442810531716L353.05866722464776,641.3442810531716L353.05866722464776,641.3442810531716L353.05866722464776,641.3442810531716L353.05866722464776,641.3442810531716L353.05866722464776,641.3442810531716L353.05866722464776,616.653185053172C353.05866722464776,588.289035053172 352.5485212246476,589.717445053172 362.7514532246476,587.676859053172C370.60771022464763,586.044390053172 383.66746322464763,581.861187053172 390.60545722464764,578.8003080531721C393.5643072246476,577.4739270531721 396.21707022464733,576.351604053172 396.4211282246475,576.351604053172C398.35968522464754,576.351604053172 409.99102822464755,567.5770830531723 416.0107582246474,561.4553240531723C436.31459222464724,541.0494600531722 441.8241752246474,504.9310810531723 427.8461592246471,485.34145105317236C424.0710742246475,480.1379560531725 416.8269922246474,475.13851905317256 410.6032042246473,473.40402105317276C406.2159432246477,472.1796690531726 395.0947472246475,472.1796690531726 387.2384892246475,473.3019920531726ZM371.42394522464787,505.0331100531723C361.1189842246477,507.0736960531724 352.5485212246476,510.2366050531723 350.3038762246477,512.8893680531725C348.0592312246478,515.5421300531722 347.9572022246477,516.3583640531723 347.9572022246477,535.7439350531721L347.9572022246477,535.7439350531721L347.9572022246477,555.7416820531722L347.9572022246477,555.7416820531722L347.9572022246477,555.7416820531722L347.9572022246477,555.7416820531722L347.9572022246477,555.7416820531722L347.9572022246477,555.7416820531722L347.9572022246477,555.7416820531722L347.9572022246477,555.7416820531722L347.9572022246477,555.7416820531722L351.1201102246478,558.3944440531722C354.6911372246478,561.4553240531723 355.50737122464756,561.4553240531723 363.26159922464757,559.6187960531721C387.5445772246475,553.701095053172 397.4414212246474,546.8651310531721 401.93071122464715,533.1932020531723C403.05303422464743,529.5201470531723 404.07332722464713,525.4389740531723 404.07332722464713,524.2146220531722C404.07332722464713,520.7456250531724 399.99215422464744,510.33863505317254 397.9515682246475,508.50210705317227C393.36024922464725,504.31890505317244 382.23905322464776,502.89049405317235 371.42394522464787,505.0331100531723ZM390.8095162246473,510.8487810531724C400.19621322464724,515.4401010531724 400.2982422246475,532.2749380531724 391.01357422464736,541.9677240531722C386.32022622464746,546.9671600531722 379.38223222464745,549.9260100531721 363.5676872246477,553.9051540531722C352.6505502246478,556.5579160531721 352.95663822464775,557.0680630531721 353.2627262246477,535.1317590531722L353.2627262246477,535.1317590531722L353.5688142246476,516.7664820531724L353.5688142246476,516.7664820531724L353.5688142246476,516.7664820531724L353.5688142246476,516.7664820531724L353.5688142246476,516.7664820531724L353.5688142246476,516.7664820531724L353.5688142246476,516.7664820531724L353.5688142246476,516.7664820531724L353.5688142246476,516.7664820531724L356.73172322464785,514.9299540531723C360.8128962246478,512.5832800531723 375.4030882246478,509.2163120531724 382.13702322464763,509.11428305317236C385.0958742246476,509.0122530531727 388.7689292246475,509.72645905317233 390.8095162246473,510.8487810531724ZM265.82359922464804,495.5443830531725C261.94648522464837,496.56467705317243 258.27343022464805,497.5849700531726 257.6612542246482,497.8910580531724C257.1511072246481,498.29917505317235 252.96790522464818,499.3194680531723 248.4786152246482,500.3397610531724C243.98932522464833,501.25802505317233 239.9081522246483,502.4823770531724 239.2959762246483,502.89049405317235C238.78583022464812,503.2986120531724 236.74524322464828,504.0128170531724 234.90871622464812,504.4209340531726C232.66407122464813,504.9310810531723 230.8275432246482,506.15543305317226 229.50116222464845,508.29804805317247C227.6646342246483,511.46095705317236 227.5626052246484,514.4198070531723 227.5626052246484,593.6965880531718C227.6646342246483,660.3217340531714 227.8686932246482,676.1362780531715 228.99101522464827,677.5646890531716C232.3579832246483,682.0539790531717 238.07162522464824,685.5229760531715 242.05076822464815,685.5229760531715C246.2339702246481,685.5229760531715 254.90646222464824,683.6864480531714 256.64096122464827,682.4620960531714C257.25313722464824,682.0539790531717 261.3343092246483,680.9316560531715 265.82359922464804,679.9113630531716C270.31289022464813,678.9930990531715 274.49609222464795,677.7687480531714 275.0062382246479,677.3606300531715C275.6184142246481,676.8504840531717 278.16914722464816,676.2383080531715 280.8219092246483,675.8301910531717C284.086848224648,675.3200440531717 286.43352222464813,674.1977210531717 288.474108224648,672.0551060531716L288.474108224648,672.0551060531716L291.33092922464795,669.0962550531718L291.33092922464795,585.5342430531721L291.33092922464795,502.07426005317234L291.33092922464795,502.07426005317234L291.33092922464795,502.07426005317234L291.33092922464795,502.07426005317234L291.33092922464795,502.07426005317234L291.33092922464795,502.07426005317234L291.33092922464795,502.07426005317234L291.33092922464795,502.07426005317234L291.33092922464795,502.07426005317234L288.27005022464806,499.21743905317237C281.9442322246479,493.1977090531724 278.3732062246481,492.5855330531725 265.82359922464804,495.5443830531725ZM280.41379222464815,581.6571290531722L280.6178512246482,663.9947890531714L280.6178512246482,663.9947890531714L280.6178512246482,663.9947890531714L280.6178512246482,663.9947890531714L280.6178512246482,663.9947890531714L280.6178512246482,663.9947890531714L280.6178512246482,663.9947890531714L280.6178512246482,663.9947890531714L280.6178512246482,663.9947890531714L277.86305922464834,665.4232000531719C276.2305902246482,666.2394350531717 271.12912422464814,667.8719040531714 266.3337462246481,668.9942260531717C261.5383682246482,670.2185780531715 252.76384722464826,672.4632230531715 246.74411722464828,673.9936630531715C237.6635072246484,676.2383080531715 235.62292122464845,676.5443960531716 234.29654022464825,675.4220730531713C232.86812922464838,674.1977210531717 232.66407122464813,665.7292880531716 232.66407122464813,593.186442053172C232.66407122464813,517.4806870531722 232.76610022464814,512.2771920531721 234.5005982246483,510.8487810531724C236.54118522464813,509.0122530531727 240.0101822246483,507.7879020531724 251.5394952246482,504.8290510531724C256.0287852246484,503.70672905317247 262.96677922464806,501.8702010531723 266.84389322464807,500.8499080531724C270.8230362246483,499.82961505317223 275.4143562246482,499.01338005317245 277.0468252246482,499.1154090531726L277.0468252246482,499.1154090531726L280.1077042246481,499.3194680531723L280.41379222464815,581.6571290531722ZM264.8033062246481,505.5432570531725C259.80387022464805,506.86963805317225 251.74355322464834,508.9102240531723 246.9481752246483,510.1345760531723C242.15279722464817,511.35892805317235 237.96959522464823,512.8893680531725 237.5614782246485,513.5015440531723C237.15336122464834,514.1137190531723 236.8472732246483,549.9260100531721 237.0513312246482,593.186442053172C237.25539022464812,671.0348130531715 237.25539022464812,671.7490180531715 239.2959762246483,671.5449590531716C241.54062122464842,671.4429300531715 256.9470492246483,667.6678450531715 261.7424272246481,666.1374050531715C263.47692522464814,665.5252290531714 267.4560692246483,664.4029070531717 270.7210072246483,663.4846430531716L270.7210072246483,663.4846430531716L276.53667822464814,661.9542030531716L276.53667822464814,661.9542030531716L276.53667822464814,661.9542030531716L276.53667822464814,661.9542030531716L276.53667822464814,661.9542030531716L276.53667822464814,661.9542030531716L276.53667822464814,661.9542030531716L276.53667822464814,661.9542030531716L276.53667822464814,661.9542030531716L276.53667822464814,582.3713340531722C276.53667822464814,519.4192440531723 276.2305902246482,502.89049405317235 275.31232622464796,502.9925240531726C274.5981212246481,503.09455305317226 269.90477222464784,504.2168750531723 264.8033062246481,505.5432570531725ZM142.36812322464874,527.9897070531722C139.0011562246488,528.8059410531723 135.32810022464884,529.8262350531722 134.20577822464878,530.3363810531721C133.08345522464873,530.8465280531723 128.69619422464876,532.0708800531723 124.51299222464888,532.9891430531723C120.329790224649,533.9074070531723 116.04455922464888,535.0297300531722 115.12629522464886,535.6419060531722C114.10600222464888,536.1520520531723 112.67759122464889,536.5601700531722 111.75932722464887,536.5601700531722C110.94309322464898,536.5601700531722 108.392360224649,537.2743750531723 106.14771522464889,538.1926390531722C102.88277722464898,539.5190200531722 101.86248322464888,540.5393130531722 101.04624922464893,543.6001930531722C100.23001422464898,546.0488960531721 100.02595622464895,573.6988420531723 100.23001422464898,629.1007620531716L100.23001422464898,629.1007620531716L100.53610222464897,710.8262470531715L100.53610222464897,710.8262470531715L100.53610222464897,710.8262470531715L100.53610222464897,710.8262470531715L100.53610222464897,710.8262470531715L100.53610222464897,710.8262470531715L100.53610222464897,710.8262470531715L100.53610222464897,710.8262470531715L100.53610222464897,710.8262470531715L103.08683522464895,713.5810390531714C108.69844822464887,719.6007680531714 113.0857082246489,720.3149740531712 125.53328522464886,717.1520650531714C140.12347822464886,713.4790090531714 151.55076222464885,710.3161000531713 153.08120222464873,709.7039250531711C153.89743622464863,709.2958070531714 159.20296122464862,707.8673970531714 164.81457322464865,706.5410160531712C198.79033722464845,698.1746110531712 212.15617822464827,694.1954680531716 214.40082322464838,691.9508230531717C215.9312622246485,690.5224120531715 216.74749722464816,687.5635620531715 217.46170222464815,681.3397740531716C218.07387822464847,676.6464250531715 218.89011322464836,669.5043730531715 219.40025922464832,665.6272590531717C219.91040622464817,661.6481150531716 220.31852322464823,655.6283850531717 220.31852322464823,652.1593880531717L220.31852322464823,652.1593880531717L220.42055222464813,645.7315410531718L220.42055222464813,645.7315410531718L220.42055222464813,645.7315410531718L220.42055222464813,645.7315410531718L220.42055222464813,645.7315410531718L220.42055222464813,645.7315410531718L220.42055222464813,645.7315410531718L220.42055222464813,645.7315410531718L220.42055222464813,645.7315410531718L215.11502822464848,641.5483390531716C210.6257382246484,637.9773130531719 209.2993572246483,637.4671660531718 206.23847722464853,637.8752840531718C201.34107022464826,638.5894890531717 181.64941122464853,643.4868960531718 179.0986782246486,644.6092190531717C176.34388622464854,645.8335710531716 167.97748222464867,647.7721280531715 165.42674922464863,647.7721280531715C163.28413422464843,647.7721280531715 163.28413422464843,647.5680690531716 163.28413422464843,591.553973053172L163.28413422464843,591.553973053172L163.28413422464843,535.3358180531723L163.28413422464843,535.3358180531723L163.28413422464843,535.3358180531723L163.28413422464843,535.3358180531723L163.28413422464843,535.3358180531723L163.28413422464843,535.3358180531723L163.28413422464843,535.3358180531723L163.28413422464843,535.3358180531723L163.28413422464843,535.3358180531723L160.01919522464874,532.2749380531724C156.85628622464873,529.3160880531722 151.1426452246488,526.2552080531723 149.30611722464874,526.4592670531723C148.8980002246488,526.5612960531723 145.7350912246489,527.2755020531722 142.36812322464874,527.9897070531722ZM152.46902622464876,534.1114660531723C152.7751142246487,535.0297300531722 153.08120222464873,562.9857630531723 153.08120222464873,596.349351053172C153.08120222464873,633.2839640531718 153.4893192246488,656.9547660531717 153.99946622464864,656.9547660531717C154.50961222464872,656.9547660531717 156.24411122464875,656.4446200531717 157.77455022464852,655.9344730531717C159.30499022464875,655.3222970531715 169.40589322464854,652.4654760531715 180.01694222464874,649.7106850531717C190.7300202246485,646.8538640531717 201.23904022464848,644.0990720531719 203.38165622464857,643.4868960531718C209.9115332246485,641.6503690531717 210.52370822464837,643.1808080531717 209.2993572246483,656.5466490531716C207.76891722464853,672.3611940531714 205.9323892246485,683.3803600531713 204.7080372246483,684.4006530531714C203.38165622464857,685.5229760531715 199.50454222464856,686.6452980531714 183.6899972246486,690.7264710531715C149.40814622464887,699.6030220531713 111.9633862246489,709.7039250531711 109.82077022464892,710.6221880531712C105.12742222464885,712.4587160531715 105.12742222464885,712.7648040531712 105.12742222464885,627.978440053172C105.12742222464885,584.105832053172 105.43351022464896,547.2732480531721 105.73959822464894,546.0488960531721C106.45380322464894,543.6001930531722 110.22888822464898,542.0697530531722 126.04343222464888,537.886551053172C131.14489822464878,536.5601700531722 137.5727452246487,534.8256710531723 140.32753722464878,534.1114660531723C147.4695892246487,532.1729090531725 151.75482122464877,532.1729090531725 152.46902622464876,534.1114660531723ZM133.18548422464886,540.0291670531722C126.45154922464877,541.8656940531721 118.39123322464889,544.0083100531722 115.33035422464883,544.8245450531722L115.33035422464883,544.8245450531722L109.71874122464891,546.2529550531723L109.41265322464886,626.2439410531717L109.20859422464895,706.1328980531714L109.20859422464895,706.1328980531714L109.20859422464895,706.1328980531714L109.20859422464895,706.1328980531714L109.20859422464895,706.1328980531714L109.20859422464895,706.1328980531714L109.20859422464895,706.1328980531714L109.20859422464895,706.1328980531714L109.20859422464895,706.1328980531714L111.9633862246489,705.6227520531712C113.59585522464897,705.3166640531713 120.12573222464886,703.5821650531713 126.55357922464884,701.8476670531713C132.98142622464871,700.1131690531714 142.47015222464876,697.5624360531714 147.4695892246487,696.2360540531714C152.57105522464877,694.9096730531713 161.75369422464865,692.4609700531714 167.87545322464877,690.8285000531715C174.09924122464867,689.0940020531716 183.48593922464846,686.6452980531714 188.99552222464848,685.2168880531718C203.48368522464847,681.4418030531714 202.46339222464854,682.5641260531717 203.8918032246484,667.9739330531717C205.62630122464822,650.1188020531715 205.5242722246483,647.7721280531715 203.17759722464842,647.7721280531715C202.05527522464848,647.7721280531715 199.9126592246484,648.2822740531716 198.4842492246484,648.7924210531719C195.3213402246485,650.0167730531715 176.34388622464854,655.1182390531716 161.85572322464856,658.5872360531715C154.20352422464856,660.4237630531718 151.44873322464872,660.7298510531718 150.42843922464868,659.9136170531717C149.20408822464884,658.9953530531716 149.0000292246487,648.0782160531716 149.0000292246487,597.6757320531719C149.0000292246487,540.1311960531723 148.8980002246488,536.5601700531722 147.26553022464867,536.6621990531721C146.24523722464875,536.6621990531721 139.91941922464895,538.1926390531722 133.18548422464886,540.0291670531722ZM62.785254224649236,549.823981053172C58.90814022464912,550.8442740531722 51.25594122464918,552.8848610531721 45.9504162246493,554.4153010531721C40.6448922246492,555.8437110531722 31.258194224649287,558.3944440531722 25.034406224649217,560.026913053172C18.91264722464922,561.6593820531723 9.42392022464935,564.1080860531721 4.1183952246494755,565.6385260531723C-1.1871287753505726,567.0669360531721 -9.247444775350402,569.209552053172 -13.736734775350385,570.331874053172C-20.3686407753504,571.8623140531721 -22.409227775350416,572.8826070531723 -24.653872775350465,575.5353700531718L-24.653872775350465,575.5353700531718L-27.510693775350262,578.8003080531721L-27.510693775350262,578.8003080531721L-27.510693775350262,578.8003080531721L-27.510693775350262,578.8003080531721L-27.510693775350262,578.8003080531721L-27.510693775350262,578.8003080531721L-27.510693775350262,578.8003080531721L-27.510693775350262,578.8003080531721L-27.510693775350262,578.8003080531721L-27.510693775350262,661.5460860531714C-27.510693775350262,754.086678053171 -28.122868775350412,746.4344790531711 -19.756464775350423,751.3318870531709C-16.185438775350576,753.3724730531712 -14.144852775350557,753.9846490531711 -11.390060775350605,753.5765320531711C-6.288594775350418,752.8623270531709 9.219861224649378,748.9852120531713 11.770594224649415,747.7608610531712C12.892917224649352,747.2507140531712 17.48423622464935,746.026362053171 21.871497224649318,745.1080980531711C27.38108022464928,743.9857760531712 30.850077224649283,742.5573650531712 32.8906642246493,740.8228670531714L32.8906642246493,740.8228670531714L35.74748422464933,738.272134053171L35.74748422464933,738.272134053171L35.74748422464933,738.272134053171L35.74748422464933,738.272134053171L35.74748422464933,738.272134053171L35.74748422464933,738.272134053171L35.74748422464933,738.272134053171L35.74748422464933,738.272134053171L35.74748422464933,738.272134053171L35.74748422464933,708.4795730531712C35.74748422464933,685.1148590531715 36.05357222464926,678.3809230531718 37.073866224649294,677.5646890531716C37.78807122464923,676.9525130531714 42.48142022464924,675.4220730531713 47.582886224649144,674.2997510531716C52.58232222464926,673.1774280531714 57.58175922464915,671.8510470531716 58.704081224649144,671.3409000531718C59.82640422464914,670.8307540531715 63.09134222464917,669.8104610531717 65.94816322464908,669.1982850531715C75.94703622464908,666.9536400531716 77.37544722464906,662.8724670531718 77.47747622464902,636.1407850531715L77.47747622464902,636.1407850531715L77.5795052246491,622.9790030531719L77.5795052246491,622.9790030531719L77.5795052246491,622.9790030531719L77.5795052246491,622.9790030531719L77.5795052246491,622.9790030531719L77.5795052246491,622.9790030531719L77.5795052246491,622.9790030531719L77.5795052246491,622.9790030531719L77.5795052246491,622.9790030531719L72.58006922464921,618.081596053172C68.39686722464916,613.7963640531718 67.07048522464902,613.082159053172 63.703518224649144,613.082159053172C59.41828722464925,613.082159053172 49.215355224649215,615.3268040531717 42.07330222464935,617.7755080531718C37.481983224649184,619.3059480531718 35.74748422464933,618.9998600531718 35.74748422464933,616.7552150531718C35.74748422464933,615.9389800531717 38.40024722464926,614.612599053172 42.17533222464931,613.5923060531719C57.989876224649265,609.3070740531718 71.4577462246491,605.7360480531718 77.5795052246491,604.2056080531719C81.66067822464908,603.2873440531722 85.33373422464899,601.6548750531722 87.06823222464897,600.022406053172C89.51693622464899,597.6757320531719 89.82302422464898,596.655439053172 89.72099422464902,591.247885053172C89.72099422464902,585.0240960531721 88.70070122464904,574.8211640531721 86.86417322464894,562.067499053172C86.04793922464904,556.3538580531721 85.43576322464895,555.0274760531721 82.47691322464897,552.5787730531722C76.25312422464901,547.2732480531721 74.00847922464914,546.9671600531722 62.785254224649236,549.823981053172ZM75.64094822464904,555.6396520531721C76.96732922464912,559.1086490531724 79.72212122464907,589.1052690531718 79.00791622464902,591.1458550531719C78.3957402246491,592.676295053172 72.06992222464913,594.8189110531719 56.459436224649096,598.9000840531722C35.64545522464937,604.409667053172 29.931813224649375,605.8380770531719 27.891227224649356,606.5522830531718C25.646582224649364,607.164459053172 25.544553224649405,607.674605053172 25.544553224649405,617.1633320531719L25.544553224649405,617.1633320531719L25.544553224649405,627.0601760531717L25.544553224649405,627.0601760531717L25.544553224649405,627.0601760531717L25.544553224649405,627.0601760531717L25.544553224649405,627.0601760531717L25.544553224649405,627.0601760531717L25.544553224649405,627.0601760531717L25.544553224649405,627.0601760531717L25.544553224649405,627.0601760531717L32.99269322464937,625.325677053172C36.97183622464922,624.3053840531719 45.03215322464922,622.2647980531722 50.84782422464917,620.7343580531717C56.8675542246491,619.1018890531719 62.27510722464905,618.1836250531717 63.805547224649104,618.591742053172L63.805547224649104,618.591742053172L66.35628022464908,619.2039180531717L66.35628022464908,619.2039180531717L66.35628022464908,619.2039180531717L66.35628022464908,619.2039180531717L66.35628022464908,619.2039180531717L66.35628022464908,619.2039180531717L66.35628022464908,619.2039180531717L66.35628022464908,619.2039180531717L66.35628022464908,619.2039180531717L66.25425122464901,635.8346970531718C66.0501922246491,659.6075290531718 66.96845622464917,657.8730300531716 54.11276222464909,661.3420270531716C48.19506122464912,662.9744960531716 41.35909722464925,664.9130530531716 38.808364224649154,665.6272590531717C36.25763122464929,666.3414640531715 32.27848822464921,667.4637860531717 29.931813224649375,668.1779920531715L29.931813224649375,668.1779920531715L25.544553224649405,669.3003140531716L25.544553224649405,669.3003140531716L25.544553224649405,669.3003140531716L25.544553224649405,669.3003140531716L25.544553224649405,669.3003140531716L25.544553224649405,669.3003140531716L25.544553224649405,669.3003140531716L25.544553224649405,669.3003140531716L25.544553224649405,669.3003140531716L25.544553224649405,700.1131690531714C25.544553224649405,717.0500360531714 25.136435224649347,731.5381990531714 24.7283182246494,732.1503750531712C24.218171224649325,732.8645800531712 18.91264722464922,734.8031370531712 12.688858224649323,736.5376360531712C6.5670992246493824,738.1701050531711 -2.6155397753505554,740.7208380531712 -7.717005775350515,742.1492480531713C-18.736171775350385,745.210128053171 -19.960523775350453,745.3121570531711 -21.388933775350438,742.7614240531713C-22.10313977535037,741.4350430531711 -22.409227775350416,713.7850970531713 -22.409227775350416,660.2197050531717C-22.409227775350416,590.0235330531722 -22.20516877535033,579.5145130531719 -20.87878777535053,578.3921910531719C-20.062552775350582,577.677985053172 -11.900207775350395,575.2292820531723 -2.8195977753504167,572.7805780531722C6.363041224649464,570.433904053172 14.525386224649367,568.1892590531721 15.341621224649373,567.8831710531721C16.157855224649268,567.5770830531723 20.74917522464932,566.3527310531722 25.544553224649405,565.128379053172C34.42110322464936,562.8837340531721 50.94985322464919,558.496473053172 63.805547224649104,555.0274760531721C73.60036222464902,552.3747140531722 74.41659622464908,552.4767430531722 75.64094822464904,555.6396520531721ZM65.33598722464916,558.7005320531721C58.80611122464927,560.435030053172 45.84838722464929,563.9040270531722 34.217045224649326,567.1689650531721C29.72775522464923,568.3933170531722 22.585702224649424,570.331874053172 18.402500224649316,571.352168053172C4.220425224649432,574.7191350531723 -8.635268775350426,578.0861030531722 -13.226588775350365,579.718572053172L-13.226588775350365,579.718572053172L-17.817907775350477,581.2490120531719L-17.817907775350477,581.2490120531719L-17.817907775350477,581.2490120531719L-17.817907775350477,581.2490120531719L-17.817907775350477,581.2490120531719L-17.817907775350477,581.2490120531719L-17.817907775350477,581.2490120531719L-17.817907775350477,581.2490120531719L-17.817907775350477,581.2490120531719L-17.817907775350477,660.6278220531718C-17.817907775350477,739.4964860531713 -17.817907775350477,740.1086620531713 -15.777321775350458,739.802574053171C-12.3083247753504,739.2924270531713 13.607122224649288,732.3544330531712 17.382207224649505,730.9260230531713L17.382207224649505,730.9260230531713L20.953233224649296,729.5996420531712L20.953233224649296,729.5996420531712L20.953233224649296,729.5996420531712L20.953233224649296,729.5996420531712L20.953233224649296,729.5996420531712L20.953233224649296,729.5996420531712L20.953233224649296,729.5996420531712L20.953233224649296,729.5996420531712L20.953233224649296,729.5996420531712L21.25932122464934,698.4806990531714C21.463380224649427,674.5038090531717 21.7694682246493,667.1576980531717 22.78976122464934,666.2394350531717C23.50396622464939,665.7292880531716 27.789198224649283,664.3008770531716 32.27848822464921,663.1785550531716C36.665748224649406,662.0562320531717 45.134182224649294,659.9136170531717 51.05188222464926,658.2811480531714L51.05188222464926,658.2811480531714L61.7649612246492,655.4243270531716L61.7649612246492,655.4243270531716L61.7649612246492,655.4243270531716L61.7649612246492,655.4243270531716L61.7649612246492,655.4243270531716L61.7649612246492,655.4243270531716L61.7649612246492,655.4243270531716L61.7649612246492,655.4243270531716L61.7649612246492,655.4243270531716L62.07104922464913,638.7935480531715C62.1730782246492,629.7129380531716 61.96902022464917,622.2647980531722 61.56090222464917,622.2647980531722C60.13249222464924,622.2647980531722 39.420540224649244,627.4682930531717 37.277924224649325,628.3865570531716C36.15560222464933,628.8967040531716 32.78863422464923,629.8149680531718 29.829784224649302,630.4271430531719C21.871497224649318,632.2636710531718 21.463380224649427,631.6514950531716 21.463380224649427,617.6734790531718C21.463380224649427,608.0827220531719 21.7694682246493,606.0421360531719 23.299908224649414,604.7157550531718C25.034406224649217,603.1853150531718 29.829784224649302,601.756905053172 52.58232222464926,595.737175053172C59.316257224649064,593.9006470531721 67.27454422464905,591.7580310531721 70.23339422464915,591.0438260531722L70.23339422464915,591.0438260531722L75.53891922464902,589.513386053172L75.53891922464902,589.513386053172L75.53891922464902,589.513386053172L75.53891922464902,589.513386053172L75.53891922464902,589.513386053172L75.53891922464902,589.513386053172L75.53891922464902,589.513386053172L75.53891922464902,589.513386053172L75.53891922464902,589.513386053172L75.02877222464912,585.7383020531718C74.72268422464919,583.697715053172 74.11050922464915,576.759721053172 73.498333224649,570.331874053172C72.9881862246491,563.9040270531722 72.17195122464915,558.2924150531722 71.76383422464909,557.986327053172C71.25368822464918,557.5782090531721 68.39686722464916,557.986327053172 65.33598722464916,558.7005320531721ZM388.7689292246475,525.6430330531723C388.7689292246475,531.0505860531721 384.2796392246476,536.8662580531724 377.64773322464777,539.9271370531724C368.66915322464746,544.2123690531721 368.36306522464764,544.1103390531722 368.36306522464764,534.5195830531723C368.36306522464764,526.4592670531723 368.36306522464764,526.3572380531722 371.2198862246475,525.7450620531722C372.7503262246474,525.4389740531723 374.8929422246477,524.8267980531722 376.01526422464775,524.3166510531722C379.6883202246475,522.6841820531723 381.1167302246475,522.4801240531723 384.9938442246475,522.3780940531724C388.56487122464745,522.2760650531724 388.7689292246475,522.3780940531724 388.7689292246475,525.6430330531723Z" fill-rule="evenodd"></path></svg>