<?xml version="1.0"?>
<!-- Created with xTool Creative Space (https://www.xtool.com/pages/software) -->
<svg xmlns="http://www.w3.org/2000/svg" xmlns:xlink="http://www.w3.org/1999/xlink" xmlns:xcs="https://www.xtool.com/pages/software" version="1.1" preserveAspectRatio="xMinYMin meet" width="89.28857421875mm" height="91.38867187499994mm" viewBox="292.99898088085206 132.16926732639743 89.28857421875 91.38867187499994" xcs:version="1.1.10"><style></style>
<path transform="matrix(1,0,0,1,-0.304425,-21.083937)" stroke="none" fill="#000000" data-view-type="laser" d="M362.256 153.289C356.681 154.019 351.6 156.553 346.352 158.406C343.132 159.649 339.841 160.723 336.682 162.117C335.538 162.804 335.875 164.132 336.165 165.272C336.226 165.515 336.286 165.75 336.329 165.968C336.347 166.212 336.464 166.582 336.585 166.969L336.585 166.97C336.902 167.977 337.253 169.09 335.988 168.344C333.945 167.643 332.039 166.431 329.878 166.145C328.404 166.341 328.095 168.152 327.418 169.214C326.793 170.209 326.255 172.394 325.531 172.619C325.487 172.435 325.445 172.234 325.402 172.025L325.401 172.022C325.12 170.659 324.762 168.929 323.067 169.079C320.189 169.75 317.436 170.859 314.586 171.621C314.015 169.751 313.908 167.726 313.053 165.954C312.125 164.665 310.492 165.451 309.429 166.101C303.947 168.996 299.111 173.279 295.875 178.592C292.919 183.472 292.33 189.915 295.061 195.022C296.549 197.851 299.637 199.343 302.653 199.941C303.339 200.044 305.229 200.349 303.831 201.07C301.652 202.592 299.091 203.369 296.635 204.298C295.264 205.185 295.875 206.841 296.346 208.118L296.347 208.121C296.388 208.232 296.428 208.34 296.465 208.444C297.609 211.349 298.783 214.286 300.482 216.916C301.401 217.828 302.691 217.368 303.84 216.958C304.157 216.844 304.464 216.735 304.749 216.659C309.052 215.067 313.181 212.51 315.701 208.577C315.939 208.34 316.173 207.906 316.4 207.483L316.402 207.48C316.725 206.881 317.036 206.306 317.326 206.349C318.431 210.642 319.182 215.02 320.138 219.349C321.858 227.464 323.501 235.597 325.342 243.685C326.115 245.025 327.695 244.659 328.991 244.358C329.168 244.317 329.34 244.277 329.504 244.243C334.418 243.015 339.296 241.57 343.986 239.649C347.467 238.053 350.747 235.614 352.475 232.108C353.127 230.913 353.581 229.623 353.879 228.297C356.032 230.54 358.796 232.239 361.882 232.801C364.873 233.318 368.109 233.198 370.783 231.611C375.915 228.727 379.449 223.359 380.6 217.639C381.194 213.632 380.962 209.508 380.138 205.55C379.063 200.493 376.194 195.591 371.555 193.063C370.495 192.438 369.347 191.989 368.179 191.611C367.891 190.461 367.602 189.31 367.313 188.159C369.551 190.196 372.749 191.249 375.734 190.512C378.787 189.83 381.842 187.69 382.534 184.5C382.679 182.861 382.627 181.071 381.486 179.761C379.749 177.482 376.738 176.676 373.983 176.805C373.452 176.691 373.877 176.147 374.315 175.588C374.591 175.236 374.872 174.877 374.921 174.616C377.405 170.339 378.058 164.885 376.035 160.301C374.818 157.355 372.236 155.015 369.241 153.969C366.997 153.22 364.595 153.202 362.256 153.289ZM366.702 157.309C370.3 157.872 373.087 161.195 373.212 164.801C373.382 166.917 373.165 169.103 372.144 170.998C370.877 174.001 368.684 176.484 366.224 178.576C364.923 179.754 363.438 180.7 362.046 181.758C361.816 182.502 362.084 183.336 362.351 184.17L362.352 184.172C362.518 184.688 362.684 185.205 362.733 185.701C363.217 187.73 363.728 189.753 364.165 191.792C362.558 192.322 360.921 192.782 359.272 193.159C356.537 182.477 353.855 171.781 351.22 161.074C352.124 160.119 353.696 159.914 354.879 159.322C358.627 157.948 362.66 156.554 366.702 157.309ZM355.437 194.372C354.188 188.995 352.816 183.646 351.492 178.286C351.183 177.051 350.874 175.816 350.564 174.581C349.494 170.524 348.617 166.407 347.331 162.413C346.614 162.358 345.799 162.699 344.989 163.038C344.529 163.231 344.07 163.423 343.632 163.541C342.565 164.122 340.67 164.226 340.187 165.179C341.589 170.736 343.004 176.29 344.356 181.86C345.597 186.721 346.643 191.636 348.005 196.463C350.513 195.905 353.002 195.194 355.437 194.372ZM359.093 164.26C357.696 164.377 358.036 165.505 358.354 166.556C358.475 166.957 358.593 167.347 358.609 167.665C359.218 170.061 359.635 172.513 360.411 174.862C361.737 174.827 363.187 172.997 363.984 171.759C364.775 170.374 364.95 168.691 364.76 167.133C364.215 165.199 362.225 163.787 360.207 164.078C359.831 164.103 359.454 164.15 359.093 164.26ZM311.27 174.933C311.128 174.397 310.987 173.868 310.998 173.391L310.968 173.231L310.938 173.072C310.797 172.821 310.747 172.349 310.696 171.864C310.591 170.874 310.48 169.83 309.58 170.511C305.489 173.226 301.456 176.361 298.935 180.657C296.741 184.31 296.493 189.065 298.348 192.904C299.351 195.044 301.79 195.809 303.935 196.216C305.47 196.586 307.381 196.602 308.281 198.138C309.194 199.326 309.173 200.998 308.312 202.204C307.304 203.643 305.657 204.467 304.2 205.376C302.968 206.206 301.419 206.5 300.25 207.38C300.969 209.375 301.831 211.326 302.778 213.224C307.587 211.624 312.178 208.335 314.084 203.488C315.212 201.026 315.114 198.282 315.019 195.629L315.019 195.624C315.01 195.348 315 195.074 314.991 194.801C314.634 193.004 313.765 191.261 312.478 189.946C310.621 187.992 307.489 189.054 305.45 187.41C303.964 186.42 303.7 184.304 304.528 182.808C306.063 180.388 308.819 179.207 311.121 177.667C311.805 176.949 311.536 175.937 311.272 174.942L311.272 174.94L311.27 174.933ZM334.369 171.918C334.651 172.087 335.033 172.23 335.425 172.377C336.606 172.82 337.885 173.3 336.822 174.624C335.458 177.988 333.867 181.261 332.63 184.674C332.379 185.794 333.229 186.568 334.044 187.311L334.046 187.312C334.383 187.619 334.714 187.92 334.959 188.238C337.677 190.889 340.43 193.504 343.134 196.17C341.649 197.75 340.222 199.387 338.665 200.896C333.926 197.062 329.419 192.946 324.747 189.03C325.964 194.232 327.364 199.391 328.542 204.602C326.216 205.331 323.857 205.978 321.482 206.529C320.074 200.535 318.951 194.474 317.72 188.44C316.919 184.277 316.024 180.126 315.362 175.939C316.663 175.259 318.187 174.988 319.549 174.393C319.722 174.331 319.905 174.255 320.089 174.178L320.09 174.177C321.105 173.757 322.168 173.316 322.017 174.99C322.801 178.525 323.524 182.075 324.354 185.599C325.385 183.953 326.07 182.047 326.922 180.282C328.333 177.18 329.648 174.033 331.084 170.944C331.529 170.583 332.371 171.012 333.155 171.412L333.157 171.413C333.61 171.644 334.044 171.865 334.369 171.918ZM342.196 189.767C341.864 187.933 341.375 186.127 340.948 184.312C340.772 183.598 340.597 182.884 340.421 182.171C340.067 181.025 339.907 179.538 339.445 178.578C338.434 180.534 337.672 182.614 336.786 184.632C338.586 186.347 340.337 188.116 342.196 189.767ZM377.306 181.2C378.751 181.842 379.326 183.929 378.08 185.047C376.095 187.032 372.4 187.603 370.304 185.485C369.016 184.17 370.272 182.267 371.58 181.545C373.239 180.506 375.526 180.478 377.306 181.2ZM312.208 183.496C312.479 184.28 312.918 185.858 311.542 185.045C310.573 184.638 308.819 184.982 308.235 184.329C309.256 183.36 310.484 182.551 311.762 181.975C311.966 182.463 312.07 182.987 312.208 183.496ZM368.257 195.865C370.906 196.618 372.895 198.787 374.32 201.049C376.5 204.966 377.108 209.556 377.072 213.98C376.908 219.909 373.674 226.035 368.144 228.566C364.006 230.245 358.992 228.557 356.269 225.124C354.498 223.117 353.415 220.566 353.208 217.898C352.631 213.082 352.573 207.942 354.878 203.531C356.914 199.506 360.869 196.344 365.372 195.659C366.334 195.545 367.325 195.588 368.257 195.865ZM349.438 207.432C349.961 204.778 350.995 202.219 352.441 199.935L352.592 199.693L352.682 199.503C352.278 199.34 351.592 199.579 350.917 199.816C350.519 199.955 350.125 200.092 349.794 200.146C349.434 200.227 349.069 200.34 348.702 200.454C347.708 200.762 346.692 201.076 345.684 200.793C344.876 199.783 344.24 200.554 343.651 201.268C343.557 201.382 343.465 201.494 343.372 201.598C342.206 202.481 343.128 202.702 344.075 202.929C344.488 203.028 344.906 203.128 345.157 203.284C347.075 204.026 348.649 205.532 349.438 207.432ZM364.28 204.65C360.616 205.68 358.593 209.696 358.695 213.309C358.715 216.251 359.846 219.36 362.41 221.014C364.7 222.624 368.022 221.923 369.764 219.826C372.698 216.43 372.879 210.998 370.343 207.328C369.016 205.368 366.648 204.208 364.28 204.65ZM345.868 209.76C345.632 208.369 344.888 206.905 343.411 206.538C341.646 206.123 339.786 206.128 337.989 206.308C333.96 207.018 330.069 208.331 326.114 209.352C324.921 209.805 323.231 209.924 322.322 210.58C324.227 220.101 326.278 229.594 328.255 239.101C328.445 239.467 328.272 240.319 328.711 240.353C331.273 239.999 333.714 239.045 336.186 238.311C340.057 236.997 344.263 235.888 347.186 232.834C349.896 230.192 350.77 226.134 350.037 222.499C349.696 219.993 347.604 218.164 345.347 217.311C343.775 217.254 344.313 216.326 344.835 215.426L344.835 215.425C344.952 215.223 345.068 215.023 345.16 214.834C346.027 213.297 346.276 211.477 345.868 209.76ZM366.465 209.446C368.293 210.584 368.551 213.187 367.907 215.075C367.457 216.483 365.814 217.897 364.324 217.02C362.293 215.688 362.188 212.701 363.222 210.709C363.808 209.556 365.233 208.748 366.465 209.446ZM332.952 215.235C332.692 214.057 332.391 212.687 333.86 212.526C335.381 212.117 337.924 212.029 338.278 214.057C338.747 216.639 336.626 218.988 334.311 219.785C333.202 219.431 333.571 217.29 333.127 216.241C333.11 215.953 333.033 215.604 332.952 215.235ZM335.655 223.51C334.385 223.606 334.618 224.665 334.835 225.648C334.914 226.009 334.991 226.359 334.991 226.648C335.395 228.808 335.66 231.003 336.202 233.133C337.008 233.434 337.734 232.559 338.38 231.779C338.628 231.48 338.865 231.195 339.089 230.996C340.632 229.304 341.399 226.415 339.834 224.496C338.831 223.32 337.069 223.158 335.655 223.51Z" fill-rule="evenodd"></path></svg>