<?xml version="1.0"?>
<!-- Created with xTool Creative Space (https://www.xtool.com/pages/software) -->
<svg xmlns="http://www.w3.org/2000/svg" xmlns:xlink="http://www.w3.org/1999/xlink" xmlns:xcs="https://www.xtool.com/pages/software" version="1.1" preserveAspectRatio="xMinYMin meet" width="202.89388588043386mm" height="142.2492763809464mm" viewBox="77.27488722018194 135.33337191445332 202.89388588043386 142.2492763809464" xcs:version="1.1.10"><style></style>
<path transform="matrix(0.198262,0,0,0.198262,77.218662,135.169866)" stroke="none" fill="#000000" data-view-type="laser" d="M631.3447208133156 1.056874765689634C555.0896504239054 3.6189311178803347 479.63446986102866 23.37154546221144 411.42760601393206 57.44576033210181 378.57564855286205 73.6066060978866 346.4525578040408 91.38163609205681 316.29435190468126 112.19313216770612 254.25299821016517 154.75935606605765 198.69273963803712 207.46599308549753 155.7782425414905 269.44077060847013 153.01409171717472 273.4355088611476 150.33818391311834 277.49002490168147 147.63892166157189 281.52859273389504 144.54983609035415 280.6626226179222 141.2338564631018 280.9393488263837 138.07467155797087 281.04597147689384 110.60936542283646 291.3575239096836 83.08818057284276 301.5220233042707 55.65444293231217 311.91625607984406 51.93243583791765 313.63571927819913 47.51688963215222 314.40931935510946 44.75568210806803 317.6803616661897 30.39223581132308 331.63281647598603 16.376053352748134 345.9364198003722 2.2218944980027624 360.0999124360152 1.5126340843647907 362.1500170245202 4.756254556870232e-10 364.03502086565777 0.3299443043575473 366.29843473997073 0.4649507186399062 368.2741170223474 0.06567983832208012 370.34671226370926 0.5492221351464326 372.25917357684455 23.81747855706714 434.54089412424344 46.95952214603526 496.87019535935406 70.33502463025022 559.1117174639156 80.96103430096522 586.5803468089583 95.77408450457231 612.810430617676 116.15006012502486 634.2497334325398 133.8324121533421 652.8143597005314 156.37324507988978 666.9595966764497 181.26455518148765 673.4577717380894 186.7934806817988 675.0478337015331 192.52223067392194 675.8941524896007 198.1209915708972 677.0939072484165 233.73114527198297 697.4715424742985 273.6550533797911 709.6797999662663 314.24714662686637 714.9474675805288 333.366069111168 717.4962216153398 352.66680037051054 718.6212741345813 371.95233524278774 718.2322866161985 394.545575709465 718.1020775733432 417.1162535403994 716.308424013715 439.449463829141 712.8855977891958 509.0627133086509 702.3624996513075 576.2144680074992 678.5595587903852 638.9131214292844 646.8715326051487 692.0063785299643 619.7139093185477 740.9085120684905 584.5892201984641 784.4252459834894 543.8692213608887 801.0345771220673 527.7540927258756 817.5456516211195 511.48380098082583 832.62982536522 493.9100591304849 845.4235036736374 479.31516905939895 857.4408465554724 464.06155559951884 868.9958193655956 448.4729017953383 887.29042982973 441.7241862995804 904.5223729425754 432.26311566510446 920.3561684644169 420.90797534489155 936.860164646336 409.3790363452409 951.0214778001497 394.8770081962724 964.0665763335153 379.6321606522996 975.0040159618902 366.30716066538565 985.0033586224207 352.19712332077 994.0196949922791 337.50528429925583 1000.0776547149287 327.64339295973224 1005.3400435842107 317.2903263969093 1009.859169164024 306.63834690050925 1017.7131818758382 287.1587461673081 1022.1721217647739 266.33682057127277 1023.3794347266303 245.38425803411477 1024.0000071857917 229.9294484085376 1023.6870815837207 214.3645009681791 1020.9244184057176 199.10758029458768 1015.5761299590237 166.95083754651495 1002.5297517299051 136.20189609428218 983.870907862108 109.52473057905024 963.0355414616181 79.79922580518198 933.8360836203151 55.8859071865245 900.212797542296 42.066588723618224 883.1141827307035 35.01835243880065 864.877478499387 30.69075692279609 846.438462367639 29.298142416303392 833.8834073266412 28.719298036308825 821.2483313105963 28.748883802305528 808.7737371400608 30.430691153322304 783.7383292976396 20.903177115737183 757.8543631995832 13.575483271835557 731.5416990243124 8.558812383208105 698.5449439888042 2.518799073806446 664.8724696052839-2.783151820118235e-9 631.3447208133156 1.056874765689634zM841.6947101927033 44.37817514492858C866.8729640735395 45.68815969665793 891.6567517385511 53.00561997358575 913.5820989965549 65.4364005607821 935.1856427632023 77.42446640322093 953.7201162000166 94.49122078961601 968.8083689743295 113.95718476495055 983.5016356564179 133.39160423997666 994.3675322941085 155.65037622639306 1001.3203192719582 178.97207950134717 1013.2754769383018 219.25249884875956 1012.0507681123049 263.6629882737656 996.0275776190376 302.6624561668421 986.6914772729288 325.14124384462133 973.1505766163073 345.64672467526515 958.1159910826309 364.6941201650793 948.1889112416457 377.2771085649329 936.9664193843172 388.8202841798343 924.8611774004561 399.31338944851444 895.3154818770149 424.11817212197155 858.565739112745 440.73674106426563 820.0909264831023 444.8102525886312 794.431826923122 447.41943225727346 768.2004234281592 444.0285984265762 744.0664012816717 434.92612253635207 741.1734490798285 434.08080351059135 744.7897093154938 438.98539744546696 744.8222215857154 440.56282241335094 745.6816972457424 442.84328023547255 746.5432124208754 445.1229782382409 747.4035278812403 447.40315612691654L706.5268462949218 488.1310730819628 635.5669169879687 513.9657309030412C595.9272213087764 487.84118200344363 556.5613805207 461.30173174646745 516.8530611567596 435.28187795565236 517.1312350210416 437.5351822335175 519.0470995250697 441.58329979528696 519.9517644413701 444.4882891353055 529.3786032144567 470.29899265150965 538.9469683397131 496.05778850873764 548.4560275649219 521.83825921278 535.0363780808857 535.0260838130838 521.7479374020118 548.3495561631928 508.17400459876916 561.3788584521088 480.8449420717748 571.6773299948746 453.6184951479644 582.2535355065073 426.1720205356434 592.236482065204 423.65837815305196 593.3410194619072 420.68308552760976 594.5670879646415 420.40043272819264 590.8244977638718 415.2005090078481 577.1592666667598 410.13839252389164 563.4421279106716 404.98973661464674 549.7576213962818 402.8825975860556 550.5673888744079 401.7094365046044 554.3795225412481 399.83968503722144 556.2347214684913 388.49543812710493 571.0970279614365 374.6820342580065 583.8037669396426 361.53308041619636 597.0211045232472 350.79793269300694 607.3786020326145 340.5732795999361 618.3961826075134 328.38005053496624 627.0950344591813 300.1949395331331 647.6735019372807 266.13623297614794 659.9281883907825 231.40423449403187 662.7905478660332 217.53575171991972 663.583839261341 203.47599442124448 663.343856317184 189.90509289731648 660.0764731361472 174.07526043325984 656.3978677230215 159.07442687506554 649.3085532045365 145.88472272162466 639.85116169535 122.78675825286442 623.0969450032509 106.05823145300434 599.0285072640985 93.78981626350367 573.5682804222139 86.4946346898236 558.4405170415309 81.30511249652041 542.4343624979738 75.26210121988419 526.7925213390643 55.54850012017076 474.0325050105324 35.90920215491866 421.24457531839084 16.226164988643024 368.47312170906764 21.6338245198868 362.0023201393919 27.800244856071544 356.17900862922954 33.628770326617044 350.0823980957938 40.98172336515587 342.62101203715946 48.3414295981256 335.16624440499703 55.69718077140908 327.7076136912806 83.12967070858062 317.5253425219254 110.46462783413668 307.07526702293575 138.00819136360883 297.19589583923766 140.3886894012117 296.44904140356243 143.83484607892558 294.28888697935906 144.12202980111766 298.17221571960084 168.10232049719215 361.1325869180958 191.2630260492865 424.40270447452565 215.28425501230544 487.3473794048017 220.4376977834759 499.10606378258626 227.69179712443938 510.36342734918077 237.973444667104 518.2623093933304 246.60938747537014 524.8651795637525 257.4108274376079 528.393700659361 268.2688659435659 528.3353545311282 270.6419257496052 528.2668908083492 273.069428611831 528.5399058991273 275.40976019899034 528.2566932328185 280.10184865695277 527.0048308625652 284.93681114667487 524.5480949504846 286.75464695698327 519.7199628368435 288.23506698774986 514.3621966434798 287.291835240697 508.68614612208 286.69688468993775 503.2531578127424 285.85139370506016 496.52839662185863 284.0177256588592 489.98487234197637 281.4809127850422 483.7092843603529 258.2541949273455 420.7306175116411 234.61456323973644 357.90508225595806 211.1442233030855 295.0169858741562 224.70768259640064 281.4878464213135 238.27128185643878 267.9587669542093 251.8349491003138 254.42983545192646 305.6440200165631 234.3476539820395 359.4791047480388 214.33103292519212 413.4729197414623 194.75065615145178 416.6246104283404 195.8106041492656 419.5036859293632 198.4499766395773 422.5330057098723 200.1218071625807 457.1768091603196 222.39894678210013 491.5063273319584 245.16238678391022 526.1481312577919 267.4415419242404 516.5449344137619 241.21861241459112 506.6384496762997 215.10665652101173 496.87069195654783 188.9442046328336 503.59109418377335 181.55324982919825 510.81325711760405 174.6236693340171 517.7625249321334 167.44611579432194L536.690824736896 148.2814721801995C565.4380700915257 137.53200786077477 594.1356072642543 126.64641990468684 622.9419185759778 116.0571335030302 629.9726470232763 134.72139608253104 636.9928179806135 153.3898296703764 643.970918940075 172.07381556066846 659.7369705679982 142.9414857597024 682.1773953665357 117.91920279684666 707.037404909828 96.24504381893586 719.6356896729777 85.47335278390332 733.1048073959612 75.67930531452838 747.317148417921 67.14596211324927 767.6436358041801 55.67491734926868 790.3005691279077 48.424053239130494 813.4171131793801 45.3813766342007 822.7944037325348 44.27134054480938 832.260833092976 43.6932299903481 841.6947101927033 44.37817514492858zM821.8994165153655 55.83745070703192C803.7189789066833 57.467923062921976 785.7487313254115 61.78670827357289 769.0428231479835 69.19975782419151 733.5020729462453 84.1750774483128 704.0612324935556 113.19907300569926 689.0440828145121 148.77048791691587 681.5010361706471 166.5254266877659 677.1436721320962 185.6317961565416 676.0277774355864 204.88066374644959 675.3853301771491 219.38437949419213 676.0135008298432 233.98297268486297 678.7857217355006 248.25777885576014 685.4588951913465 285.28741507548017 703.2484257380164 320.3902293962881 729.9964264122194 346.95728908913253 751.9994751967184 369.2436505161711 780.4177987523661 385.4267909814006 811.2129572165238 391.618866818001 820.5814498613776 393.6375548757729 830.1450161275607 394.69811872716775 839.7334164894481 394.50104558122445 849.6109881009936 394.5682136120537 859.533069130444 394.1615582941827 869.2262445820985 392.1161006008803 903.8342565419574 385.6924078311074 936.4733766050285 367.92685558360694 959.6487066801486 341.2902604227904 980.4271266196353 317.71597719861194 993.1729363087965 287.5852167741025 997.0912847231256 256.5035424289737 998.6457951389347 244.5058988636344 998.6146825359427 232.3426266764296 997.9619577209902 220.28070239380355 993.8298601254381 171.67697790865165 970.8661197449578 124.39531110484768 933.3600767907367 92.85901284636111 910.5045506823593 73.56799127854349 882.2554668900299 60.489636651799934 852.5051000271128 56.73352966464042 842.6280482919667 55.33512613448564 832.6132293109249 55.59001753416366 822.668033776938 55.78150000928654L821.8994165153655 55.83745070703192zM841.6643174185724 122.96069218488643C863.6898808502237 125.74728967251757 883.3587245909802 138.77234897020293 897.2258676836011 155.72854964069703 911.4310504074433 173.1253215655625 921.1157078842425 194.20365420093313 925.1817411865521 216.28590815443684 929.3881411167557 239.39888905304727 926.6505519774106 264.46136246064185 913.9712464769069 284.6116157464835 902.2319574878769 303.34079089304913 882.2633050265163 315.91541728096746 860.9926421175865 321.01402109007785 844.2593804434407 325.15292106836637 826.1809985710506 324.01795090704 810.331006899837 317.10818570078237 789.0728210244978 308.0525466751136 772.6388082040642 290.1492631731604 762.0252915631366 269.9510132984873 749.3911753189064 245.99156164793857 742.911355893222 217.98911521768116 747.7088952802709 191.03749895299825 750.808118441281 173.22381014994343 759.5833521331987 156.24384312988886 773.2938924580611 144.30194231173513 783.1563076730336 135.4631557294901 795.3567270285149 129.50888335521753 807.9884438432085 125.76614119057716 818.8840534166612 122.66748589455737 830.4037546125957 121.49718413330395 841.6643174185724 122.96069218488643zM583.5560825417626 142.79317702004226C572.8537070269946 146.8645290578249 562.1151401167156 150.84668230258268 551.4765094466377 155.08145548705713 566.2756309617846 195.86968210350707 581.5495995822339 236.48659345008963 596.6235757508036 277.1745039166616 604.9150444576411 299.2414455106723 612.9580522359587 321.4065917565687 621.4797462068374 343.384694471985 620.307584887693 343.1518698259457 617.5892711656256 340.91150247233224 615.9679766277133 340.01862675315516 548.1006720505445 295.6486756901708 480.2921934875159 251.18834211559013 412.4591607622289 206.7659675162792 392.7659748088231 214.15811803563363 372.93920461501375 221.20912966061528 353.4196533800274 229.05235693666242 352.6220949991936 231.6845351374134 355.68274733040215 235.77641429488207 356.3184481927921 238.94018610947722 393.40013203821127 338.95808689605565 430.7132608576861 438.8903000548312 467.9315722199711 538.8574129162173 470.97312909111713 538.5865973025143 473.74718955941927 536.9471470811079 476.667335296011 536.1019080363318 495.81798223783625 529.0760984195834 515.0258555741107 522.1794181023989 534.0194598527623 514.7423462630693 524.1270117780896 487.2580406450538 513.7467996691087 459.94845348779853 503.56326080114826 432.56992272185704 489.32284645360966 394.4627666820165 474.93974602962516 356.40745431636446 460.8952451037538 318.227867496911 491.68632453769925 338.252418668377 522.2142265419668 358.6829893088867 552.8453040163103 378.9524222598136 594.2359833998709 406.4261783859663 635.6021086211729 433.93727763380764 677.0182619483141 461.3726348892754 695.4054104115785 454.56633308463796 713.8868964461252 448.0065326743987 732.1521538889277 440.87734763511315 732.8234742827893 438.2984407691249 729.8815737183986 434.28923395634143 729.2212507099134 431.190970567146 691.8748098103715 331.57098717587587 654.3688868276271 232.0102696941609 616.9103125877391 132.43258024752345 615.4027110193715 128.90160373568906 611.0291508314482 133.28041867429766 608.2370946416212 133.53140300288018 600.0011727285571 136.59483067425273 591.7769680297304 139.68975885639225 583.5560825417626 142.79317702004226zM859.5368682272104 165.2998260737912L843.7910117978873 181.04928164741938C851.7078495730694 188.8290440122222 859.6486816436181 196.73257695062375 865.543080252853 206.21728996413418 868.0199313825491 209.84067250647405 869.7774335371586 213.9073176633156 872.2250516169998 217.53380746690544 882.8616827624637 207.35023660655125 893.1482771290231 196.8041479346527 903.5935937594318 186.42360390458592 896.6993528622761 172.68152707751352 888.0752032501825 159.40892263358148 875.8882606905987 149.7828472289195 873.2164559110502 150.91387432770728 870.8757324170664 154.40078531610112 868.3669288840405 156.5097799035339 865.4154306015033 159.4315972427028 862.4733700751435 162.36295631332908 859.5368682272104 165.2998260737912zM525.3131297790387 175.0439094221147L509.66724958040913 190.9761215454508C515.5378538467388 206.58880163739167 521.2452569140843 222.26507061110289 527.3102549633746 237.80298847773102 537.030543968793 228.5998365231985 546.3622453607514 218.9773762590384 555.6881881218219 209.37184397025933 556.412175994013 208.14692719370262 558.4506913378559 207.13667138159275 558.5050784073533 205.76196621716156 552.6545893586392 190.21287900604034 546.9372286587167 174.61083238599605 540.9586100727456 159.11209720370132L525.3131297790387 175.0439094221147zM786.9077357725967 174.2065085138249C777.0041303505784 175.20395537125827 766.9166886355607 179.9196222234675 761.7501169857754 188.76659485948173 759.9610623327592 191.79289135877468 758.5988262038202 195.14541029882093 757.7646645254048 198.53823565603363 757.4990876661903 209.02741385837214 757.1414127032607 219.62640195345526 759.5174478019255 229.93086007291498 764.3163468657118 253.4447496556561 775.601783757885 276.0617524728446 793.2840997947592 292.51954363998635 802.1992602191558 300.9224778459487 813.2894235375383 306.98390074522945 825.2753338924433 309.618950263326 832.2526750325513 311.49291272954576 839.5319043988619 311.4113241272013 846.6893627161877 311.54734778763384 853.9868677374692 310.2731947169851 861.4683290232267 307.93373492255733 866.6688925914477 302.3648829147564 874.4575208483885 294.26314110043086 875.923012428388 282.3600390578847 875.3007603685509 271.6167892609599 874.6110043577494 261.8258050632934 872.8411851315185 252.07146815275 869.9184000224365 242.6985405623027 862.7192316216655 221.24970001503073 850.677214606095 200.60048135799408 832.1914495888745 187.02039401799 820.7270952342519 178.4031707591589 806.3619505413001 174.36759421576767 792.1517690059233 173.97076056280008 790.4014251494315 173.94719016665175 788.6472821961734 174.00194914772726 786.9077357725967 174.2065085138249zM899.46817457609 212.24346524352157C892.6065259301405 219.17238589558016 885.7586740040267 226.11503528363758 878.9406549851522 233.08690972345138 881.0123624375854 239.00112762065882 882.5387595373232 245.07922255617007 884.1171842675143 251.13621850795568 886.3141419417606 250.38224576465512 888.9839072062031 246.6063074923752 891.3401870016828 244.63981102607465 899.0112832018201 237.02262600857657 906.6384298509445 229.36132747904722 914.2858516796537 221.72041210343173 913.1520812330956 215.23056306228415 911.9031381687786 208.73308783425932 909.918889922956 202.4457946355463 906.0898802683746 205.22890495225084 902.897599231835 208.95851423922733 899.46817457609 212.24346524352157zM550.1640214900918 236.62086952600964C544.4627769585571 242.523514174752 538.5515423520736 248.2335686117354 533.0776837596284 254.35025437229436 535.3498635498486 260.0802480687273 537.3713429439815 265.9209914344734 539.9492500476628 271.52097204146315 550.5444110526349 261.1619748886354 560.8097704677949 250.46828930783926 571.2250142480109 239.927683332432 568.9644317005511 234.1685525633257 566.8457754101843 228.34942405865556 564.4074351245512 222.66338791133398 559.4316981039141 227.05820704495198 554.8728619652693 231.93844677003065 550.1640214900918 236.62086952600964zM298.30230150701976 249.713356792724C287.4522011137788 253.80577182278918 276.5745192780141 257.82867138012847 265.7732352786963 262.04802423078075 277.43519465280946 294.2418541613916 289.55995999500027 326.26883576012244 301.50927904947144 358.3577186418496 312.50566466346334 387.91545530251545 323.65838910796464 417.4176851599003 334.37132611174314 447.0792331394692 339.47652435303013 464.39099727490054 340.44017924448906 483.7553933979488 333.0161363075434 500.560637958194 325.951783854338 516.4787734282484 311.92095567777625 528.6804324889904 295.79688116964064 534.8925155688771 277.0142107415555 542.5206219898163 254.45173496058717 542.3547814183416 236.79402907266058 531.8251248397199 221.85048989275214 522.860176252438 211.0037646970594 508.16199073979936 204.40565339521837 492.2353372948898 181.2418285847264 431.79734640154896 158.9010241015013 371.04753364372385 135.9956898349923 310.511702011977 114.37337053222075 318.2979348384303 92.855490399081 326.3827126859317 71.36948668733561 334.5388535669023 69.95833818729199 336.5926252835491 73.15900922911153 340.60527127866845 73.65875441490591 343.4432445517284 95.00750275905665 401.15703112348945 116.4596425219415 458.83407842999515 138.25064572018854 516.3824763228442 148.95837996092177 542.9935495514893 164.49340251590905 568.4037482875348 186.89104948485735 586.7510662204908 202.77341345956964 599.8999000908241 222.42238192566427 608.2091645667249 242.81523353385785 611.0087389691001 245.7204228263378 611.6533857046127 248.67442051464235 611.6737008746895 251.63499663892654 611.6097160870456 262.6529851168467 611.6150748130108 273.76217191240556 611.9024065000243 284.6070615445027 609.6017534793026 300.46443945964006 606.9811765203613 315.6714839912631 601.4774850206771 330.4427481294895 595.2860770252978 352.7844284044955 585.1526062536688 374.0572188076144 571.1712903055958 388.9738123938263 551.3770763715494 403.81233654101413 531.9627321236466 411.2881191768683 507.3664198864318 410.8621404531289 483.0149694334318 411.0906461260023 460.3873891310359 405.72324222399976 438.0759736605855 398.266151144236 416.8418620615973 376.0612143585235 357.27422824123204 353.7544817747188 297.7439335435063 331.40883044382963 238.2288872204859 328.9346306837715 237.13022042804909 325.2308632529047 240.1784357161593 322.2801887745084 240.74107794820762 314.2844737523581 243.72355286606293 306.292729786091 246.71674923489786 298.30230150701976 249.713356792724zM239.55346901698607 282.14444631496775L224.07234964653958 297.94349009902C229.86001363188583 313.5000955226894 235.6219837259438 329.06751437547064 241.56739020807848 344.56440599607134 244.80592824703552 342.39608151429576 247.36444396101146 339.24003586280855 250.22366818166765 336.566319537729 257.8269445059517 328.81305087405997 265.5877593755135 321.1902072019046 272.8299575459751 313.099086862328 267.3478769083178 297.5807763340635 261.5002431807523 282.18599643644404 255.52862692997897 266.8485309123566 253.35249630411076 267.16025679965935 250.6102002838246 271.3937982769716 248.23642064892434 273.3249031576066 245.33397470421465 276.25672611794334 242.44095051948554 279.1978868582268 239.55346901698607 282.14444631496775zM263.04348427583756 345.11467516980906C257.91098452547277 350.41251561049495 252.6889980505387 355.6303350761337 247.71112953666312 361.07368092297105 249.4940976367548 367.0775615029138 252.0061324015566 372.845734122324 254.1935883348378 378.71468678132265 264.7895131582125 368.2164187400895 275.1368450844429 357.47058555736356 285.59452277601446 346.835066147585 283.28800714912484 341.1061202020497 281.31656785797884 335.21658043762665 278.59578672253787 329.6743461014856 273.2148540369979 334.6091728485229 268.1932199283739 339.9382338665298 263.04348427583756 345.11467516980906zM83.82409360983085 461.27505808811844C78.6401700854465 466.6674160573021 73.25330281085253 471.895213150764 68.40295997780053 477.5887795077814 74.13019433026632 493.19542903348685 79.98852551451606 508.7538100350134 85.78722687573088 524.3340658358156 96.39586467660058 513.8557570492782 106.74177694035511 503.1163503386612 117.17336483476485 492.4628432054563 111.31204236169278 476.8519146970771 105.58163676318937 461.19031823498256 99.56395146531246 445.63917551255815 94.14469589102299 450.66534054395726 89.04127722664236 456.0382631338941 83.82409360983085 461.27505808811844zM109.62915846662388 522.3789306683711C103.78568375025522 528.4006590050172 97.80291815023497 534.2926981752076 92.14451543307713 540.4906246208284 94.38223141705258 546.199347374419 96.48665509121807 551.9642167791669 98.89011167043742 557.6049556958859 109.34216269974553 547.8769085349657 119.2421409841142 537.5629606716884 129.38787683972475 527.5131900003962 130.44173828461393 526.6907055457258 131.24608705103643 525.8179130517705 130.2357352617451 524.5790875819996 128.0025222072001 519.3068210611252 126.12442472407884 513.8569167735542 123.4586425126671 508.79036134495493 120.87177353966645 510.5704581277011 118.5209564454319 513.6072961207584 116.04742052754555 515.8704780502161 113.90321831071168 518.0352433781791 111.76434282744917 520.2052874511227 109.62915846662388 522.3789306683711z" fill-rule="nonzero"></path></svg>