<?xml version="1.0" standalone="no"?>
<!DOCTYPE svg PUBLIC "-//W3C//DTD SVG 20010904//EN"
 "http://www.w3.org/TR/2001/REC-SVG-20010904/DTD/svg10.dtd">
<svg version="1.0" xmlns="http://www.w3.org/2000/svg"
 width="1298.000000pt" height="884.000000pt" viewBox="0 0 1298.000000 884.000000"
 preserveAspectRatio="xMidYMid meet">

<g transform="translate(0.000000,884.000000) scale(0.100000,-0.100000)"
fill="#000000" stroke="none">
<path d="M910 8276 c-77 -17 -116 -40 -185 -110 -68 -70 -99 -137 -114 -251
-14 -102 -30 -436 -41 -860 -6 -203 -20 -570 -32 -815 -18 -366 -22 -577 -22
-1185 -1 -752 6 -950 40 -1225 29 -226 119 -540 204 -710 36 -72 124 -207 170
-260 l30 -34 0 137 0 137 884 0 885 0 3 -32 3 -32 110 94 c168 144 232 211
262 277 25 53 27 69 28 178 0 108 -2 125 -25 170 -35 71 -108 141 -187 178
-56 25 -83 32 -155 35 -149 7 -177 -7 -443 -221 -303 -245 -517 -366 -660
-375 -61 -3 -74 -1 -105 20 -134 91 -227 518 -250 1146 -10 278 2 973 24 1397
9 154 20 406 26 560 6 154 15 390 20 525 19 485 24 851 11 924 -30 172 -149
295 -318 331 -80 17 -90 17 -163 1z"/>
<path d="M6717 8170 c-128 -22 -212 -104 -263 -256 -23 -68 -26 -90 -21 -162
9 -152 99 -277 231 -320 36 -12 75 -22 85 -22 12 0 21 -9 25 -27 3 -16 10
-271 16 -568 11 -623 25 -1118 45 -1635 8 -201 19 -513 25 -695 6 -181 15
-445 20 -585 6 -140 10 -320 10 -400 0 -80 3 -202 7 -272 l6 -128 34 0 33 0 0
-200 0 -200 205 0 205 0 0 -116 0 -116 32 8 c18 3 52 16 75 27 l43 21 0 288 0
288 343 0 344 0 89 67 c601 451 973 1032 1189 1855 75 286 97 466 97 788 0
352 -27 555 -108 798 -99 302 -243 538 -474 776 -260 268 -577 462 -960 590
-363 120 -516 145 -1235 200 -27 2 -72 0 -98 -4z m1000 -881 c116 -34 302
-110 398 -164 75 -42 261 -200 336 -286 397 -455 450 -1215 142 -2019 -96
-251 -181 -407 -331 -608 -176 -237 -512 -536 -554 -494 -13 13 -21 165 -48
967 -46 1386 -72 2635 -55 2635 2 0 53 -14 112 -31z"/>
<path d="M5943 7816 c-138 -45 -242 -162 -272 -306 -7 -30 -30 -179 -52 -330
-185 -1275 -378 -2068 -650 -2662 -166 -364 -402 -678 -509 -678 -70 0 -153
173 -233 485 -114 443 -166 901 -197 1715 -26 695 -40 863 -79 937 -61 118
-229 201 -386 191 -123 -8 -237 -87 -313 -217 -27 -45 -27 -49 -30 -256 -4
-227 12 -878 28 -1145 83 -1380 324 -2141 764 -2419 l50 -31 293 0 293 0 0
-35 0 -35 66 25 c168 63 359 209 540 413 106 119 153 185 289 411 61 102 116
186 122 188 22 8 37 -130 58 -537 8 -162 17 -310 20 -327 3 -18 7 -49 10 -68
l6 -35 378 0 379 0 6 23 c9 34 7 256 -4 470 -19 368 -30 1033 -41 2497 l-12
1475 -35 44 c-141 174 -203 213 -352 218 -62 2 -110 -2 -137 -11z"/>
<path d="M10752 6619 c-150 -25 -293 -165 -482 -470 -241 -387 -378 -804 -422
-1277 -25 -276 43 -623 172 -878 170 -334 433 -563 750 -650 130 -35 371 -45
505 -20 314 59 580 212 807 463 204 226 308 430 393 769 94 375 96 572 9 917
-86 342 -243 604 -471 787 -100 80 -160 118 -302 189 -131 66 -191 84 -331
101 -132 15 -366 48 -420 60 -75 15 -152 19 -208 9z m505 -868 c119 -25 198
-67 271 -146 202 -215 266 -634 146 -953 -121 -321 -357 -532 -599 -536 -72
-1 -87 2 -147 32 -150 73 -241 248 -268 514 -14 137 -3 253 40 435 64 266 194
571 275 642 33 29 41 31 113 31 42 0 118 -9 169 -19z"/>
<path d="M1057 3003 c-4 -3 -7 -87 -7 -185 l0 -178 185 0 185 0 0 185 0 185
-178 0 c-98 0 -182 -3 -185 -7z"/>
<path d="M1460 2825 l0 -185 185 0 185 0 -2 183 -3 182 -182 3 -183 2 0 -185z"/>
<path d="M1860 2825 l0 -185 185 0 185 0 0 185 0 185 -185 0 -185 0 0 -185z"/>
<path d="M2270 2825 l0 -185 180 0 180 0 0 185 0 185 -180 0 -180 0 0 -185z"/>
<path d="M3380 2825 l0 -185 185 0 185 0 -2 183 -3 182 -182 3 -183 2 0 -185z"/>
<path d="M3787 3003 c-4 -3 -7 -87 -7 -185 l0 -178 185 0 185 0 0 185 0 185
-178 0 c-98 0 -182 -3 -185 -7z"/>
<path d="M4190 2825 l0 -185 185 0 185 0 -2 183 -3 182 -182 3 -183 2 0 -185z"/>
<path d="M5707 3003 c-4 -3 -7 -87 -7 -185 l0 -178 185 0 185 0 0 185 0 185
-178 0 c-98 0 -182 -3 -185 -7z"/>
<path d="M6110 2825 l0 -185 185 0 185 0 -2 183 -3 182 -182 3 -183 2 0 -185z"/>
<path d="M6517 3003 c-4 -3 -7 -87 -7 -185 l0 -178 185 0 185 0 0 185 0 185
-178 0 c-98 0 -182 -3 -185 -7z"/>
<path d="M7627 3003 c-4 -3 -7 -87 -7 -185 l0 -178 185 0 185 0 0 185 0 185
-178 0 c-98 0 -182 -3 -185 -7z"/>
<path d="M8030 2825 l0 -185 185 0 185 0 -2 183 -3 182 -182 3 -183 2 0 -185z"/>
<path d="M8437 3003 c-4 -3 -7 -87 -7 -185 l0 -178 185 0 185 0 0 185 0 185
-178 0 c-98 0 -182 -3 -185 -7z"/>
<path d="M8840 2825 l0 -185 185 0 185 0 -2 183 -3 182 -182 3 -183 2 0 -185z"/>
<path d="M9950 2825 l0 -185 185 0 185 0 0 185 0 185 -185 0 -185 0 0 -185z"/>
<path d="M10357 3003 c-4 -3 -7 -87 -7 -185 l0 -178 185 0 185 0 0 185 0 185
-178 0 c-98 0 -182 -3 -185 -7z"/>
<path d="M10760 2825 l0 -185 185 0 185 0 -2 183 -3 182 -182 3 -183 2 0 -185z"/>
<path d="M11167 3003 c-4 -3 -7 -87 -7 -185 l0 -178 185 0 185 0 0 185 0 185
-178 0 c-98 0 -182 -3 -185 -7z"/>
<path d="M11570 2825 l0 -185 185 0 185 0 -2 183 -3 182 -182 3 -183 2 0 -185z"/>
<path d="M650 2415 l0 -185 185 0 185 0 0 185 0 185 -185 0 -185 0 0 -185z"/>
<path d="M2972 2418 l3 -183 183 -3 182 -2 0 185 0 185 -185 0 -185 0 2 -182z"/>
<path d="M4590 2415 l0 -185 185 0 185 0 0 185 0 185 -185 0 -185 0 0 -185z"/>
<path d="M5300 2415 l0 -185 185 0 185 0 0 185 0 185 -185 0 -185 0 0 -185z"/>
<path d="M6920 2415 l0 -185 183 2 182 3 3 183 2 182 -185 0 -185 0 0 -185z"/>
<path d="M7622 2418 l3 -183 183 -3 182 -2 0 185 0 185 -185 0 -185 0 2 -182z"/>
<path d="M9240 2415 l0 -185 185 0 185 0 0 185 0 185 -185 0 -185 0 0 -185z"/>
<path d="M9950 2415 l0 -185 185 0 185 0 0 185 0 185 -185 0 -185 0 0 -185z"/>
<path d="M1050 2015 l0 -185 185 0 185 0 0 185 0 185 -185 0 -185 0 0 -185z"/>
<path d="M1460 2015 l0 -185 185 0 185 0 0 185 0 185 -185 0 -185 0 0 -185z"/>
<path d="M1860 2015 l0 -185 185 0 185 0 0 185 0 185 -185 0 -185 0 0 -185z"/>
<path d="M2970 2015 l0 -185 185 0 185 0 0 185 0 185 -185 0 -185 0 0 -185z"/>
<path d="M5300 2015 l0 -185 185 0 185 0 0 185 0 185 -185 0 -185 0 0 -185z"/>
<path d="M6920 2015 l0 -185 185 0 185 0 0 185 0 185 -185 0 -185 0 0 -185z"/>
<path d="M7620 2015 l0 -185 185 0 185 0 0 185 0 185 -185 0 -185 0 0 -185z"/>
<path d="M9240 2015 l0 -185 185 0 185 0 0 185 0 185 -185 0 -185 0 0 -185z"/>
<path d="M9950 2015 l0 -185 185 0 185 0 0 185 0 185 -185 0 -185 0 0 -185z"/>
<path d="M10350 2015 l0 -185 185 0 185 0 0 185 0 185 -185 0 -185 0 0 -185z"/>
<path d="M10760 2015 l0 -185 185 0 185 0 0 185 0 185 -185 0 -185 0 0 -185z"/>
<path d="M11160 2015 l0 -185 185 0 185 0 0 185 0 185 -185 0 -185 0 0 -185z"/>
<path d="M2270 1610 l0 -180 180 0 180 0 0 180 0 180 -180 0 -180 0 0 -180z"/>
<path d="M2970 1610 l0 -180 185 0 185 0 0 180 0 180 -185 0 -185 0 0 -180z"/>
<path d="M5300 1610 l0 -180 185 0 185 0 0 180 0 180 -185 0 -185 0 0 -180z"/>
<path d="M6920 1610 l0 -180 185 0 185 0 0 180 0 180 -185 0 -185 0 0 -180z"/>
<path d="M7620 1610 l0 -180 185 0 185 0 0 180 0 180 -185 0 -185 0 0 -180z"/>
<path d="M8030 1610 l0 -180 185 0 185 0 0 180 0 180 -185 0 -185 0 0 -180z"/>
<path d="M8430 1610 l0 -180 185 0 185 0 0 180 0 180 -185 0 -185 0 0 -180z"/>
<path d="M8840 1610 l0 -180 185 0 185 0 0 180 0 180 -185 0 -185 0 0 -180z"/>
<path d="M9950 1610 l0 -180 185 0 185 0 0 180 0 180 -185 0 -185 0 0 -180z"/>
<path d="M650 1205 l0 -185 185 0 185 0 0 185 0 185 -185 0 -185 0 0 -185z"/>
<path d="M2270 1205 l0 -185 180 0 180 0 0 185 0 185 -180 0 -180 0 0 -185z"/>
<path d="M2970 1205 l0 -185 185 0 185 0 0 185 0 185 -185 0 -185 0 0 -185z"/>
<path d="M4590 1205 l0 -185 185 0 185 0 0 185 0 185 -185 0 -185 0 0 -185z"/>
<path d="M5300 1205 l0 -185 185 0 185 0 0 185 0 185 -185 0 -185 0 0 -185z"/>
<path d="M6920 1205 l0 -185 185 0 185 0 0 185 0 185 -185 0 -185 0 0 -185z"/>
<path d="M7620 1205 l0 -185 185 0 185 0 0 185 0 185 -185 0 -185 0 0 -185z"/>
<path d="M8840 1205 l0 -185 185 0 185 0 0 185 0 185 -185 0 -185 0 0 -185z"/>
<path d="M9950 1205 l0 -185 185 0 185 0 0 185 0 185 -185 0 -185 0 0 -185z"/>
<path d="M1050 800 l0 -180 185 0 185 0 0 180 0 180 -185 0 -185 0 0 -180z"/>
<path d="M1460 800 l0 -180 185 0 185 0 0 180 0 180 -185 0 -185 0 0 -180z"/>
<path d="M1860 800 l0 -180 185 0 185 0 0 180 0 180 -185 0 -185 0 0 -180z"/>
<path d="M3380 800 l0 -180 185 0 185 0 0 180 0 180 -185 0 -185 0 0 -180z"/>
<path d="M3780 800 l0 -180 185 0 185 0 0 180 0 180 -185 0 -185 0 0 -180z"/>
<path d="M4190 800 l0 -180 185 0 185 0 0 180 0 180 -185 0 -185 0 0 -180z"/>
<path d="M5700 800 l0 -180 185 0 185 0 0 180 0 180 -185 0 -185 0 0 -180z"/>
<path d="M6110 800 l0 -180 185 0 185 0 0 180 0 180 -185 0 -185 0 0 -180z"/>
<path d="M6510 800 l0 -180 185 0 185 0 0 180 0 180 -185 0 -185 0 0 -180z"/>
<path d="M7620 800 l0 -180 185 0 185 0 0 180 0 180 -185 0 -185 0 0 -180z"/>
<path d="M9240 800 l0 -180 185 0 185 0 0 180 0 180 -185 0 -185 0 0 -180z"/>
<path d="M9950 800 l0 -180 185 0 185 0 0 180 0 180 -185 0 -185 0 0 -180z"/>
<path d="M10350 800 l0 -180 185 0 185 0 0 180 0 180 -185 0 -185 0 0 -180z"/>
<path d="M10760 800 l0 -180 185 0 185 0 0 180 0 180 -185 0 -185 0 0 -180z"/>
<path d="M11160 800 l0 -180 185 0 185 0 0 180 0 180 -185 0 -185 0 0 -180z"/>
<path d="M11570 800 l0 -180 185 0 185 0 0 180 0 180 -185 0 -185 0 0 -180z"/>
</g>
</svg>
